<svg xmlns="http://www.w3.org/2000/svg" width="64" height="64" viewBox="0 0 16.933 16.933"><path fill="#e4eff8" d="M 1.58745,8.731277 H 11.9062 V 9.78961 H 1.58745 Z"/><path fill="#c4dcf0" d="M 11.9062,8.731277 H 11.32897 C 11.22008,9.039434 10.92964,9.260443 10.58328,9.260443 H 1.58745 V 9.78961 H 11.9062 Z"/><path fill="#38668c" d="m 1.322863,9.5250282 h 11.111148 c 0.439737,0 0.793748,0.3540118 0.793748,0.7937478 v 2.11667 c 0,0.439736 -0.354011,0.793748 -0.793748,0.793748 H 1.322863 c -0.43973649,0 -0.79374822,-0.354012 -0.79374822,-0.793748 v -2.11667 c 0,-0.439736 0.35401173,-0.7937478 0.79374822,-0.7937478 z"/><path fill="#c4dcf0" d="m 6.7137466,8.7312745 c 0.046408,0.3681492 0.1078707,0.720897 0.182933,1.0583333 H 11.906194 V 8.7312745 Z"/><path fill="#2c5170" d="M 6.8419108,9.5250245 C 7.1415779,11.044093 7.7057754,12.268521 8.3348487,13.229191 H 12.4338 c 0.439738,0 0.79375,-0.354012 0.79375,-0.79375 v -2.116667 c 0,-0.439737 -0.354012,-0.7937495 -0.79375,-0.7937495 z"/><path style="line-height:normal;font-variant-ligatures:normal;font-variant-position:normal;font-variant-caps:normal;font-variant-numeric:normal;font-variant-alternates:normal;font-feature-settings:normal;text-indent:0;text-align:start;text-decoration-line:none;text-decoration-style:solid;text-decoration-color:#000;text-transform:none;text-orientation:mixed;white-space:normal;shape-padding:0;isolation:auto;mix-blend-mode:normal;solid-color:#000;solid-opacity:1" fill="#e4eff8" d="m 5.82078,11.112529 c -0.3528645,0 -0.3528645,0.529297 0,0.529297 h 5.82031 c 0.352865,0 0.352865,-0.529297 0,-0.529297 z" color="#000" enable-background="accumulate" font-family="sans-serif" font-weight="400" overflow="visible"/><path style="line-height:normal;font-variant-ligatures:normal;font-variant-position:normal;font-variant-caps:normal;font-variant-numeric:normal;font-variant-alternates:normal;font-feature-settings:normal;text-indent:0;text-align:start;text-decoration-line:none;text-decoration-style:solid;text-decoration-color:#000;text-transform:none;text-orientation:mixed;white-space:normal;shape-padding:0;isolation:auto;mix-blend-mode:normal;solid-color:#000;solid-opacity:1" fill="#c4dcf0" d="m 7.2806429,11.112524 c 0.065643,0.181515 0.1341967,0.358577 0.2066925,0.529167 h 4.1537466 c 0.360685,0.008 0.360685,-0.537162 0,-0.529167 z" color="#000" enable-background="accumulate" font-family="sans-serif" font-weight="400" overflow="visible"/><path fill="#2c5170" d="m 12.66171,9.561714 c 0.0217,0.0726 0.0367,0.148029 0.0367,0.227893 v 2.116668 c 0,0.439736 -0.35402,0.79375 -0.79375,0.79375 H 0.79369 c -0.0799,0 -0.15529,-0.01494 -0.22789,-0.03669 0.098,0.327146 0.39719,0.565857 0.75706,0.565857 h 11.11095 c 0.43974,0 0.79375,-0.354014 0.79375,-0.79375 v -2.116667 c 0,-0.359968 -0.23857,-0.659149 -0.56585,-0.757061 z"/><path fill="#549ad4" d="M 4.76245,13.229195 H 1.32287 c -0.43974,0 -0.79375,-0.354012 -0.79375,-0.793748 v -2.11667 c 0,-0.439736 0.35401,-0.793748 0.79375,-0.793748 h 3.43958 z"/><path fill="#3588cb" d="m 1.32278,13.229229 h 3.43958 v -0.52917 H 0.79361 c -0.0799,0 -0.16046764,-0.01494 -0.23252264,-0.03566 0.11803256,0.348664 0.39231262,0.564827 0.76169264,0.564827 z"/><path fill="#e4eff8" d="M 1.58745,4.23336 H 11.9062 V 5.291693 H 1.58745 Z"/><path fill="#c4dcf0" d="M 11.9062,4.23336 H 11.32897 C 11.22008,4.541517 10.92964,4.762527 10.58328,4.762527 H 1.58745 V 5.291693 H 11.9062 Z"/><path fill="#38668c" d="m 1.322863,5.0271106 h 11.111148 c 0.439737,0 0.793748,0.3540117 0.793748,0.7937482 V 7.937528 c 0,0.4397365 -0.354011,0.7937483 -0.793748,0.7937483 H 1.322863 c -0.43973649,0 -0.79374822,-0.3540118 -0.79374822,-0.7937483 V 5.8208588 c 0,-0.4397365 0.35401173,-0.7937482 0.79374822,-0.7937482 z"/><path fill="#2c5170" d="m 11.370307,6.0813084 c -0.013,4.219e-4 -0.02596,0.0018 -0.03876,0.00413 L 6.8331266,6.8921055 c -0.1261937,0.022282 -0.2182854,0.1317866 -0.2185987,0.259932 0,0.5563208 0.036407,1.080844 0.099219,1.5792317 H 12.4338 c 0.439738,0 0.79375,-0.3540125 0.79375,-0.79375 V 6.4089314 L 11.423012,6.0854412 c -0.01738,-0.00313 -0.03504,-0.00452 -0.0527,-0.00413 z"/><path fill="#2c5170" d="m 12.66171,5.063798 c 0.0217,0.0726 0.0367,0.148029 0.0367,0.227893 v 2.116667 c 0,0.439736 -0.35402,0.79375 -0.79375,0.79375 H 0.79369 c -0.0799,0 -0.15529,-0.01494 -0.22789,-0.03669 0.098,0.327146 0.39719,0.565857 0.75706,0.565857 h 11.11095 c 0.43974,0 0.79375,-0.354014 0.79375,-0.79375 V 5.820858 c 0,-0.359967 -0.23857,-0.659148 -0.56585,-0.75706 z"/><path fill="#549ad4" d="M 4.76245,8.731276 H 1.32286 c -0.43973,0 -0.79374,-0.354012 -0.79374,-0.793749 V 5.820858 c 0,-0.439736 0.35401,-0.793748 0.79374,-0.793748 h 3.43959 z"/><path d="m 5.82078,6.614608 c -0.3528645,0 -0.3528645,0.529297 0,0.529297 h 5.82031 c 0.352865,0 0.352865,-0.529297 0,-0.529297 z" style="line-height:normal;font-variant-ligatures:normal;font-variant-position:normal;font-variant-caps:normal;font-variant-numeric:normal;font-variant-alternates:normal;font-feature-settings:normal;text-indent:0;text-align:start;text-decoration-line:none;text-decoration-style:solid;text-decoration-color:#000;text-transform:none;text-orientation:mixed;white-space:normal;shape-padding:0;isolation:auto;mix-blend-mode:normal;solid-color:#000;solid-opacity:1" fill="#e4eff8" color="#000" enable-background="accumulate" font-family="sans-serif" font-weight="400" overflow="visible"/><path fill="#3588cb" d="M 1.32278,8.731312 H 4.76236 V 8.202142 H 0.79361 c -0.0799,0 -0.15917946,-0.01494 -0.23123446,-0.035658 C 0.69765873,8.5602054 1.0097598,8.7260161 1.32278,8.731312 Z"/><path fill="#38668c" d="m 1.322863,0.52919728 h 11.111148 c 0.439737,0 0.793748,0.35401172 0.793748,0.79374822 v 2.1166692 c 0,0.4397365 -0.354011,0.7937483 -0.793748,0.7937483 H 1.322863 c -0.43973649,0 -0.79374822,-0.3540118 -0.79374822,-0.7937483 V 1.3229455 c 0,-0.4397365 0.35401173,-0.79374822 0.79374822,-0.79374822 z"/><path fill="#2c5170" d="m 12.66171,0.565883 c 0.0217,0.0726 0.0367,0.148029 0.0367,0.227893 v 2.116667 c 0,0.439736 -0.35402,0.79375 -0.79375,0.79375 H 0.79369 c -0.0799,0 -0.15529,-0.01494 -0.22789,-0.03669 0.098,0.327146 0.39719,0.565857 0.75706,0.565857 h 11.11095 c 0.43974,0 0.79375,-0.354014 0.79375,-0.79375 V 1.322943 c 0,-0.359967 -0.23857,-0.659148 -0.56585,-0.75706 z"/><path fill="#549ad4" d="M 4.76245,4.233361 H 1.32286 c -0.43973,0 -0.79374,-0.354011 -0.79374,-0.793748 V 1.322944 c 0,-0.439737 0.35401,-0.793748 0.79374,-0.793748 h 3.43959 z"/><path fill="#e4eff8" d="m 3.1749494,2.3812747 c 0,0.29225 -0.2369157,0.5291655 -0.529166,0.5291655 -0.2922503,0 -0.529166,-0.2369155 -0.529166,-0.5291655 0,-0.29225 0.2369157,-0.5291655 0.529166,-0.5291655 0.2922503,0 0.529166,0.2369155 0.529166,0.5291655 z"/><path style="line-height:normal;font-variant-ligatures:normal;font-variant-position:normal;font-variant-caps:normal;font-variant-numeric:normal;font-variant-alternates:normal;font-feature-settings:normal;text-indent:0;text-align:start;text-decoration-line:none;text-decoration-style:solid;text-decoration-color:#000;text-transform:none;text-orientation:mixed;white-space:normal;shape-padding:0;isolation:auto;mix-blend-mode:normal;solid-color:#000;solid-opacity:1" fill="#c4dcf0" d="M 8.3808333,6.6146079 6.8331266,6.8921108 c -0.1229793,0.0219 -0.2138929,0.1268194 -0.2180695,0.2516637 h 5.0260249 c 0.360697,0.00801 0.360697,-0.5371746 0,-0.5291666 z" color="#000" enable-background="accumulate" font-family="sans-serif" font-weight="400" overflow="visible"/><path style="line-height:normal;font-variant-ligatures:normal;font-variant-position:normal;font-variant-caps:normal;font-variant-numeric:normal;font-variant-alternates:normal;font-feature-settings:normal;text-indent:0;text-align:start;text-decoration-line:none;text-decoration-style:solid;text-decoration-color:#000;text-transform:none;text-orientation:mixed;white-space:normal;shape-padding:0;isolation:auto;mix-blend-mode:normal;solid-color:#000;solid-opacity:1" fill="#e4eff8" d="M 7.09758,7.160316 C 6.9713876,7.182522 6.8792366,7.2919514 6.87883,7.420082 c 0,6.463665 4.63867,8.953125 4.63867,8.953125 0.07756,0.04115 0.17048,0.04115 0.24804,0 0,0 4.63868,-2.48946 4.63868,-8.953125 C 16.403813,7.2919514 16.31166,7.1825219 16.18547,7.160316 L 11.68742,6.353675 c -0.01739,-0.00306 -0.03505,-0.00436 -0.0527,-0.0039 -0.01311,3.312e-4 -0.02618,0.00163 -0.0391,0.0039 z" color="#000" enable-background="accumulate" font-family="sans-serif" font-weight="400" overflow="visible"/><path style="line-height:normal;font-variant-ligatures:normal;font-variant-position:normal;font-variant-caps:normal;font-variant-numeric:normal;font-variant-alternates:normal;font-feature-settings:normal;text-indent:0;text-align:start;text-decoration-line:none;text-decoration-style:solid;text-decoration-color:#000;text-transform:none;text-orientation:mixed;white-space:normal;shape-padding:0;isolation:auto;mix-blend-mode:normal;solid-color:#000;solid-opacity:1" fill="#c4dcf0" d="M 8.94718,8.433754 C 8.8217669,8.456798 8.7306252,8.5660066 8.73039,8.693519 c 0,3.994011 2.7832,5.560547 2.7832,5.560547 0.07962,0.04397 0.176242,0.04397 0.25586,0 0,0 2.7832,-1.566536 2.7832,-5.560547 C 14.552415,8.5660066 14.46127,8.4567976 14.33586,8.433754 L 11.68937,7.941566 c -0.01739,-0.00306 -0.03505,-0.00436 -0.0527,-0.0039 -0.01442,1.285e-4 -0.0288,0.00143 -0.043,0.0039 z" color="#000" enable-background="accumulate" font-family="sans-serif" font-weight="400" overflow="visible"/><path fill="#549ad4" d="m 14.28745,8.694353 c 0,3.873527 -2.64583,5.328737 -2.64583,5.328737 0,0 -2.64584,-1.45521 -2.64584,-5.328737 l 2.64584,-0.4921 z"/><path fill="#3588cb" d="m 11.64162,8.202253 -0.26459,0.04909 2.38125,0.442867 c 0,3.145552 -1.72543,4.677239 -2.38125,5.149039 0.15178,0.109189 0.26459,0.179834 0.26459,0.179834 0,0 2.64583,-1.455346 2.64583,-5.328873 z"/><path d="m 5.82078,2.3811196 c -0.3528645,0 -0.3528645,0.529297 0,0.529297 h 5.82031 c 0.352865,0 0.352865,-0.529297 0,-0.529297 z" style="line-height:normal;font-variant-ligatures:normal;font-variant-position:normal;font-variant-caps:normal;font-variant-numeric:normal;font-variant-alternates:normal;font-feature-settings:normal;text-indent:0;text-align:start;text-decoration-line:none;text-decoration-style:solid;text-decoration-color:#000;text-transform:none;text-orientation:mixed;white-space:normal;shape-padding:0;isolation:auto;mix-blend-mode:normal;solid-color:#000;solid-opacity:1" fill="#2c5170" color="#000" enable-background="accumulate" font-family="sans-serif" font-weight="400" overflow="visible"/><path style="line-height:normal;font-variant-ligatures:normal;font-variant-position:normal;font-variant-caps:normal;font-variant-numeric:normal;font-variant-alternates:normal;font-feature-settings:normal;text-indent:0;text-align:start;text-decoration-line:none;text-decoration-style:solid;text-decoration-color:#000;text-transform:none;text-orientation:mixed;white-space:normal;shape-padding:0;isolation:auto;mix-blend-mode:normal;solid-color:#000;solid-opacity:1" fill="#e4eff8" d="m 5.82078,2.116693 c -0.3528645,0 -0.3528645,0.529297 0,0.529297 h 5.82031 c 0.352865,0 0.352865,-0.529297 0,-0.529297 z" color="#000" enable-background="accumulate" font-family="sans-serif" font-weight="400" overflow="visible"/><path fill="#3588cb" d="M 1.32277,4.233398 H 4.76236 V 3.704228 H 0.79361 c -0.0799,0 -0.1553,-0.01494 -0.227355,-0.035658 C 0.6491441,3.9934573 0.96379458,4.233398 1.32277,4.233398 Z"/><path style="line-height:normal;font-variant-ligatures:normal;font-variant-position:normal;font-variant-caps:normal;font-variant-numeric:normal;font-variant-alternates:normal;font-feature-settings:normal;text-indent:0;text-align:start;text-decoration-line:none;text-decoration-style:solid;text-decoration-color:#000;text-transform:none;text-orientation:mixed;white-space:normal;shape-padding:0;isolation:auto;mix-blend-mode:normal;solid-color:#000;solid-opacity:1" fill="#c4dcf0" d="m 11.11035,6.440573 c 0.01612,-1.018e-4 0.03223,0.00127 0.0481,0.0041 l 4.49791,0.806669 c 0.126194,0.022286 0.218282,0.1317949 0.21859,0.259941 0,5.627273 -3.51309,8.240173 -4.42299,8.822717 0.015,0.0085 0.0656,0.03927 0.0656,0.03927 0.07756,0.04115 0.170488,0.04115 0.24805,0 0,0 4.63848,-2.489793 4.63848,-8.953458 C 16.403525,7.2918626 16.31149,7.1826465 16.18549,7.1604 L 11.68758,6.353731 c -0.01739,-0.00312 -0.03504,-0.0045 -0.05269,-0.00409 -0.01317,3.963e-4 -0.02631,0.00177 -0.03929,0.00411 z" color="#000" enable-background="accumulate" font-family="sans-serif" font-weight="400" overflow="visible"/><path fill="#c4dcf0" d="m 2.51246,1.869162 c 0.2339578,0.059904 0.3976747,0.2706083 0.39791,0.512113 8.6e-6,0.2409078 -0.1627039,0.4514151 -0.39584,0.512113 0.042864,0.011154 0.086959,0.016882 0.13125,0.01705 0.2922525,2.2e-6 0.5291708,-0.2369148 0.52917,-0.529167 8e-7,-0.2922522 -0.2369175,-0.5291692 -0.52917,-0.529163 -0.044984,-2.5e-6 -0.089785,0.00572 -0.13332,0.017054 z"/><path fill="#e4eff8" d="m 3.1749506,6.87919 c 0,0.29225 -0.2369157,0.5291655 -0.529166,0.5291655 -0.2922503,0 -0.529166,-0.2369155 -0.529166,-0.5291655 0,-0.29225 0.2369157,-0.5291655 0.529166,-0.5291655 0.2922503,0 0.529166,0.2369155 0.529166,0.5291655 z"/><path fill="#c4dcf0" d="m 2.6457824,6.3500294 c -0.044986,-5.9e-6 -0.089789,0.00572 -0.1333252,0.017053 0.2339573,0.059904 0.3976735,0.270609 0.3979085,0.5121134 8.7e-6,0.2409084 -0.1627046,0.4514161 -0.3958414,0.5121135 0.042866,0.011156 0.086964,0.016885 0.1312581,0.017053 0.292251,4e-7 0.5291674,-0.2369159 0.5291667,-0.5291667 6e-7,-0.2922507 -0.2369157,-0.529167 -0.5291667,-0.5291666 z"/><path fill="#e4eff8" d="m 3.1749506,11.377101 c -3e-7,0.29225 -0.2369159,0.529165 -0.529166,0.529165 -0.2922501,0 -0.5291657,-0.236915 -0.529166,-0.529165 -3e-7,-0.29225 0.2369155,-0.529166 0.529166,-0.529166 0.2922505,0 0.5291663,0.236916 0.529166,0.529166 z"/><path fill="#c4dcf0" d="m 2.5124572,10.86499 c 0.2339572,0.0599 0.3976734,0.270609 0.3979085,0.512113 8.9e-6,0.240909 -0.1627044,0.451417 -0.3958414,0.512114 0.042867,0.01115 0.086964,0.01688 0.1312581,0.01705 0.2922512,0 0.5291675,-0.236916 0.5291667,-0.529167 8e-7,-0.292251 -0.2369155,-0.529167 -0.5291667,-0.529164 -0.044986,-3e-6 -0.089789,0.0057 -0.1333252,0.01705 z"/></svg>