<svg xmlns="http://www.w3.org/2000/svg" width="64" height="64" viewBox="0 0 16.933 16.933"><path d="m 9.5243216,15.609677 c 0.3528602,3.4e-5 0.3528602,-0.529252 0,-0.529286 L 4.2325179,15.07987 C 3.9430477,15.079841 3.7034975,14.848833 3.7034875,14.551104 l -2.7e-4,-4.7635754 c -1e-5,-0.3528579 -0.5293104,-0.3528579 -0.5292904,0 l 2.6e-4,4.7635754 c 3e-5,0.581728 0.4683204,1.057994 1.0583308,1.058052 z" style="line-height:normal;font-variant-ligatures:normal;font-variant-position:normal;font-variant-caps:normal;font-variant-numeric:normal;font-variant-alternates:normal;font-feature-settings:normal;text-indent:0;text-align:start;text-decoration-line:none;text-decoration-style:solid;text-decoration-color:#000;text-transform:none;text-orientation:mixed;white-space:normal;shape-padding:0;isolation:auto;mix-blend-mode:normal;solid-color:#000;solid-opacity:1" fill="#549ad4" color="#000" enable-background="accumulate" font-family="sans-serif" font-weight="400" overflow="visible"/><path style="line-height:normal;font-variant-ligatures:normal;font-variant-position:normal;font-variant-caps:normal;font-variant-numeric:normal;font-variant-alternates:normal;font-feature-settings:normal;text-indent:0;text-align:start;text-decoration-line:none;text-decoration-style:solid;text-decoration-color:#000;text-transform:none;text-orientation:mixed;white-space:normal;shape-padding:0;isolation:auto;mix-blend-mode:normal;solid-color:#000;solid-opacity:1" fill="#3588cb" d="M3.4395773 9.7874886v4.7634374c.00002.297729.2397002.529127.5291704.529156H4.2322979C3.9428277 15.080053 3.7036675 14.848655 3.7036475 14.550926l-.00053-4.7634374zM9.5244716 15.080387H8.739491L9.0893413 15.34238 8.732781 15.609542h.7915406z" color="#000" enable-background="accumulate" font-family="sans-serif" font-weight="400" overflow="visible"/><path d="m 8.752051,16.40276 c 0.050509,-0.0046 0.098643,-0.02355 0.1386701,-0.05469 l 1.0586008,-0.794906 c 0.1397981,-0.105879 0.1397981,-0.315987 0,-0.421866 L 8.8907211,14.336395 C 8.6078472,14.121887 8.28754,14.548312 8.5723709,14.760215 l 0.7773406,0.582019 -0.7773406,0.58202 c -0.2200407,0.157538 -0.08967,0.504728 0.1796801,0.478506 z" style="line-height:normal;font-variant-ligatures:normal;font-variant-position:normal;font-variant-caps:normal;font-variant-numeric:normal;font-variant-alternates:normal;font-feature-settings:normal;text-indent:0;text-align:start;text-decoration-line:none;text-decoration-style:solid;text-decoration-color:#000;text-transform:none;text-orientation:mixed;white-space:normal;shape-padding:0;isolation:auto;mix-blend-mode:normal;solid-color:#000;solid-opacity:1" fill="#549ad4" color="#000" enable-background="accumulate" font-family="sans-serif" font-weight="400" overflow="visible"/><path fill="#38668c" d="m 0.52916666,7.4083543 v 2.2489124 c 0,0.5113993 1.30305094,0.9260233 2.91042204,0.9260233 1.6073811,0 2.9104121,-0.414624 2.9104121,-0.9260233 V 7.4083543 h -0.0331 c -0.2024001,0.4485 -1.411661,0.793734 -2.877342,0.793734 -1.465681,0 -2.67495188,-0.345234 -2.87735202,-0.793734 z"/><path fill="#2c5170" d="M 6.316931,7.4083543 C 6.2514226,7.5535151 6.0718484,7.6857657 5.820837,7.8010873 v 1.591602 c 0,0.5113996 -1.3030376,0.9260227 -2.9104188,0.9260227 -0.8652787,0 -1.6336921,-0.122431 -2.1667942,-0.313153 0.432512,0.338849 1.4757109,0.577732 2.6959613,0.577732 1.6073811,0 2.9104187,-0.414624 2.9104187,-0.9260238 V 7.4083543 Z"/><path fill="#549ad4" d="m 0.52916666,5.2917304 v 2.2489124 c 0,0.5113996 1.30305094,0.9260233 2.91042204,0.9260233 1.6073811,0 2.9104121,-0.4146237 2.9104121,-0.9260233 V 5.2917304 h -0.0331 c -0.2024001,0.4484999 -1.411661,0.793734 -2.877342,0.793734 -1.465681,0 -2.67495188,-0.3452341 -2.87735202,-0.793734 z"/><path fill="#3588cb" d="M 6.316931,5.2917304 C 6.2514226,5.4368911 6.0718485,5.5691418 5.820837,5.6844633 v 1.591602 c 0,0.5113997 -1.3030376,0.926023 -2.9104187,0.926023 -0.8652788,0 -1.6336922,-0.1224311 -2.16679429,-0.313153 0.43251199,0.3388491 1.47571099,0.577731 2.69596129,0.577731 1.6073811,0 2.9104187,-0.4146234 2.9104187,-0.926023 V 5.2917304 Z"/><path fill="#38668c" d="m 0.52916666,3.3074459 v 2.1165733 c 0,0.5113997 1.30305094,0.9260233 2.91042204,0.9260233 1.6073811,0 2.9104121,-0.4146236 2.9104121,-0.9260233 V 3.3074459 h -0.0331 c -0.2024001,0.4485 -1.411651,0.793733 -2.877342,0.793733 -1.465681,0 -2.67494188,-0.345233 -2.87734202,-0.793733 z"/><path fill="#2c5170" d="M 6.3169304,3.3094209 C 6.251422,3.4545817 6.0718479,3.5868323 5.8208364,3.7021539 v 1.4572876 c 0,0.5113997 -1.3030376,0.9260231 -2.9104187,0.9260231 -0.8652788,0 -1.6336922,-0.1224312 -2.16679429,-0.313153 0.43251199,0.338849 1.47571099,0.5777309 2.69596129,0.5777309 1.6073811,0 2.9104187,-0.4146233 2.9104187,-0.926023 V 3.3094209 Z"/><path fill="#e4eff8" d="m 6.3500107,3.3073428 c 0,0.5113941 -1.3030389,0.9259608 -2.9104187,0.9259608 -1.6073798,0 -2.91041858,-0.4145667 -2.91041858,-0.9259608 0,-0.511394 1.30303878,-0.9259608 2.91041858,-0.9259608 1.6073798,0 2.9104187,0.4145668 2.9104187,0.9259608 z"/><path fill="#c4dcf0" d="m 5.8208404,2.7766897 c 1.4e-6,5.332e-4 1.4e-6,0.00107 0,0.0016 C 5.8209489,3.2897085 4.5178762,3.7043135 2.9104183,3.7043129 1.9615805,3.7039136 1.0729203,3.5563851 0.52916666,3.3089959 0.53174566,3.8198094 1.8340316,4.2334705 3.4395887,4.2334692 5.0470426,4.233468 6.3501093,3.8188635 6.3500008,3.3074459 6.3489108,3.1174617 6.1641751,2.9321817 5.8208404,2.7767397 Z"/><path fill="#549ad4" d="m 10.583332,11.377015 v 2.248912 c 0,0.5114 1.303051,0.926023 2.910422,0.926023 1.607381,0 2.910412,-0.414623 2.910412,-0.926023 v -2.248912 h -0.0331 c -0.2024,0.448499 -1.411661,0.793733 -2.877342,0.793733 -1.465681,0 -2.674952,-0.345234 -2.877352,-0.793733 z"/><path fill="#3588cb" d="m 16.371096,11.377015 c -0.0655,0.14516 -0.24509,0.277411 -0.4961,0.392733 v 1.591601 c 0,0.5114 -1.303031,0.926023 -2.910412,0.926023 -0.865281,0 -1.633701,-0.122431 -2.166802,-0.313153 0.432511,0.338849 1.475711,0.577731 2.695962,0.577731 1.607381,0 2.910422,-0.414623 2.910422,-0.926023 v -2.248912 z"/><path fill="#38668c" d="m 10.583332,9.2603902 v 2.2489128 c 0,0.5114 1.303051,0.926023 2.910422,0.926023 1.607381,0 2.910412,-0.414623 2.910412,-0.926023 V 9.2603902 h -0.0331 c -0.2024,0.4485 -1.411661,0.7937338 -2.877342,0.7937338 -1.465681,0 -2.674952,-0.3452338 -2.877352,-0.7937338 z"/><path fill="#2c5170" d="m 16.371096,9.2603902 c -0.0655,0.1451611 -0.24509,0.2774114 -0.4961,0.3927331 v 1.5916017 c 0,0.5114 -1.303031,0.926023 -2.910412,0.926023 -0.865281,0 -1.633701,-0.122431 -2.166802,-0.313152 0.432511,0.338848 1.475711,0.57773 2.695962,0.57773 1.607381,0 2.910422,-0.414623 2.910422,-0.926023 V 9.2603902 Z"/><path fill="#e4eff8" d="m 11.906263,11.112256 c 0,0.146116 -0.118461,0.264568 -0.26459,0.264569 -0.146129,-1e-6 -0.26459,-0.118453 -0.26459,-0.264569 0,-0.146116 0.118461,-0.264568 0.26459,-0.264569 0.146129,10e-7 0.26459,0.118453 0.26459,0.264569 z"/><path d="m 13.494644,11.640587 c 0.696081,10e-7 1.368581,-0.07581 1.919922,-0.220698 0.303895,-0.07513 0.248542,-0.522648 -0.06447,-0.521493 -0.02374,7.7e-5 -0.04738,0.0034 -0.07027,0.0098 -0.491841,0.129242 -1.128181,0.203109 -1.785152,0.203103 -0.26093,-1.2e-5 -0.5213,-0.01061 -0.77149,-0.0332 -0.35162,-0.03134 -0.39852,0.495995 -0.0469,0.527329 0.26678,0.0241 0.5419,0.03515 0.81836,0.03516 z" style="line-height:normal;font-variant-ligatures:normal;font-variant-position:normal;font-variant-caps:normal;font-variant-numeric:normal;font-variant-alternates:normal;font-feature-settings:normal;text-indent:0;text-align:start;text-decoration-line:none;text-decoration-style:solid;text-decoration-color:#000;text-transform:none;text-orientation:mixed;white-space:normal;shape-padding:0;isolation:auto;mix-blend-mode:normal;solid-color:#000;solid-opacity:1" fill="#e4eff8" color="#000" enable-background="accumulate" font-family="sans-serif" font-weight="400" overflow="visible"/><path fill="#e4eff8" d="m 11.906263,13.229141 c 0,0.146116 -0.118461,0.264568 -0.26459,0.264569 -0.146129,-10e-7 -0.26459,-0.118453 -0.26459,-0.264569 0,-0.146116 0.118461,-0.264568 0.26459,-0.264569 0.146129,10e-7 0.26459,0.118453 0.26459,0.264569 z"/><path d="m 13.494644,13.757732 c 0.696081,10e-7 1.368581,-0.07581 1.919922,-0.220698 0.303895,-0.07513 0.248542,-0.522648 -0.06447,-0.521493 -0.02374,7.7e-5 -0.04738,0.0034 -0.07027,0.0098 -0.491841,0.129242 -1.128181,0.203108 -1.785152,0.203102 -0.26093,-1.1e-5 -0.5213,-0.01061 -0.77149,-0.0332 -0.351563,-0.03127 -0.398463,0.496065 -0.0469,0.52733 0.26678,0.0241 0.5419,0.03515 0.81836,0.03516 z" style="line-height:normal;font-variant-ligatures:normal;font-variant-position:normal;font-variant-caps:normal;font-variant-numeric:normal;font-variant-alternates:normal;font-feature-settings:normal;text-indent:0;text-align:start;text-decoration-line:none;text-decoration-style:solid;text-decoration-color:#000;text-transform:none;text-orientation:mixed;white-space:normal;shape-padding:0;isolation:auto;mix-blend-mode:normal;solid-color:#000;solid-opacity:1" fill="#e4eff8" color="#000" enable-background="accumulate" font-family="sans-serif" font-weight="400" overflow="visible"/><path fill="#549ad4" d="m 10.583332,7.2761063 v 2.1165733 c 0,0.5113997 1.303051,0.9260234 2.910422,0.9260234 1.607381,0 2.910412,-0.4146237 2.910412,-0.9260234 V 7.2761063 h -0.0331 c -0.2024,0.4485 -1.411651,0.793733 -2.877342,0.793733 -1.465681,0 -2.674942,-0.345233 -2.877342,-0.793733 z"/><path fill="#e4eff8" d="m 11.906243,8.9956406 c 0,0.1461169 -0.11846,0.2645687 -0.26459,0.2645697 -0.14613,-1e-6 -0.26459,-0.1184528 -0.26459,-0.2645697 0,-0.1461166 0.118461,-0.2645677 0.26459,-0.2645687 0.146129,10e-7 0.26459,0.1184521 0.26459,0.2645687 z"/><path d="m 13.494684,8.9961026 c -0.26092,-1e-6 -0.5213,-0.01257 -0.77149,-0.035159 -0.351563,-0.031266 -0.398463,0.4960673 -0.0469,0.5273333 0.26678,0.02409 0.5419,0.037109 0.81836,0.037109 0.696071,0 1.368581,-0.075798 1.919922,-0.2206985 0.34156,-0.064136 0.25354,-0.5752758 -0.08982,-0.521487 -0.01524,0.00195 -0.03027,0.00523 -0.04492,0.00979 -0.491831,0.1292469 -1.128181,0.2031124 -1.785152,0.2031122 z" style="line-height:normal;font-variant-ligatures:normal;font-variant-position:normal;font-variant-caps:normal;font-variant-numeric:normal;font-variant-alternates:normal;font-feature-settings:normal;text-indent:0;text-align:start;text-decoration-line:none;text-decoration-style:solid;text-decoration-color:#000;text-transform:none;text-orientation:mixed;white-space:normal;shape-padding:0;isolation:auto;mix-blend-mode:normal;solid-color:#000;solid-opacity:1" fill="#e4eff8" color="#000" enable-background="accumulate" font-family="sans-serif" font-weight="400" overflow="visible"/><path fill="#3588cb" d="m 16.371096,7.2780813 c -0.0655,0.14516 -0.24509,0.2774114 -0.4961,0.392733 v 1.4572876 c 0,0.5113997 -1.303031,0.9260221 -2.910412,0.9260221 -0.865281,0 -1.633701,-0.1224303 -2.166802,-0.3131525 0.432511,0.3388495 1.475711,0.5777315 2.695962,0.5777315 1.607381,0 2.910422,-0.4146237 2.910422,-0.9260234 V 7.2780813 Z"/><path fill="#e4eff8" d="m 16.404166,7.2760005 c 0,0.511394 -1.303039,0.9259607 -2.910418,0.9259608 -1.60738,10e-8 -2.910419,-0.4145667 -2.910419,-0.9259608 0,-0.5113941 1.303039,-0.9259609 2.910419,-0.9259608 1.607379,1e-7 2.910418,0.4145668 2.910418,0.9259608 z"/><path fill="#c4dcf0" d="m 15.875006,6.74535 c 10e-7,5.333e-4 10e-7,0.00107 0,0.0016 1.08e-4,0.5114189 -1.302964,0.9260239 -2.910422,0.9260233 -0.948838,-3.993e-4 -1.837498,-0.1479278 -2.381252,-0.395317 0.0026,0.5108135 1.304865,0.9244746 2.910422,0.9244733 1.607454,-1.2e-6 2.91052,-0.4146057 2.910412,-0.9260233 C 16.403081,7.086122 16.218341,6.9008421 15.875006,6.7454 Z"/><path style="line-height:normal;font-variant-ligatures:normal;font-variant-position:normal;font-variant-caps:normal;font-variant-numeric:normal;font-variant-alternates:normal;font-feature-settings:normal;text-indent:0;text-align:start;text-decoration-line:none;text-decoration-style:solid;text-decoration-color:#000;text-transform:none;text-orientation:mixed;white-space:normal;shape-padding:0;isolation:auto;mix-blend-mode:normal;solid-color:#000;solid-opacity:1" fill="#549ad4" d="m 7.4083201,1.3224095 c -0.3528603,-3.5e-5 -0.3528603,0.5292513 0,0.5292853 l 5.2918039,5.21e-4 c 0.28947,2.9e-5 0.52902,0.2310364 0.52904,0.5287653 l 2.6e-4,4.7635759 c 2e-5,0.3528578 0.529311,0.3528578 0.529291,0 l -2.6e-4,-4.7635759 c -3e-5,-0.5817262 -0.468321,-1.0579926 -1.058331,-1.0580516 z" color="#000" enable-background="accumulate" font-family="sans-serif" font-weight="400" overflow="visible"/><path style="line-height:normal;font-variant-ligatures:normal;font-variant-position:normal;font-variant-caps:normal;font-variant-numeric:normal;font-variant-alternates:normal;font-feature-settings:normal;text-indent:0;text-align:start;text-decoration-line:none;text-decoration-style:solid;text-decoration-color:#000;text-transform:none;text-orientation:mixed;white-space:normal;shape-padding:0;isolation:auto;mix-blend-mode:normal;solid-color:#000;solid-opacity:1" fill="#3588cb" d="M 7.4081801,1.8516988 H 8.1931406 L 7.8433004,1.5897051 8.1998706,1.3225435 H 7.4083201 Z" color="#000" enable-background="accumulate" font-family="sans-serif" font-weight="400" overflow="visible"/><path style="line-height:normal;font-variant-ligatures:normal;font-variant-position:normal;font-variant-caps:normal;font-variant-numeric:normal;font-variant-alternates:normal;font-feature-settings:normal;text-indent:0;text-align:start;text-decoration-line:none;text-decoration-style:solid;text-decoration-color:#000;text-transform:none;text-orientation:mixed;white-space:normal;shape-padding:0;isolation:auto;mix-blend-mode:normal;solid-color:#000;solid-opacity:1" fill="#549ad4" d="m 8.0419205,0.5852614 -1.0586007,0.794906 c -0.1397978,0.105879 -0.1397978,0.3159874 0,0.4218664 l 1.0586007,0.794906 C 8.3244726,2.8091754 8.6428329,2.385356 8.3602808,2.1731203 L 7.5829302,1.5911001 8.3602808,1.0090808 C 8.5803258,0.85153998 8.449945,0.50434294 8.1805906,0.53057401 c -0.050509,0.004563 -0.098643,0.023546 -0.1386701,0.0546874 z" color="#000" enable-background="accumulate" font-family="sans-serif" font-weight="400" overflow="visible"/><path style="line-height:normal;font-variant-ligatures:normal;font-variant-position:normal;font-variant-caps:normal;font-variant-numeric:normal;font-variant-alternates:normal;font-feature-settings:normal;text-indent:0;text-align:start;text-decoration-line:none;text-decoration-style:solid;text-decoration-color:#000;text-transform:none;text-orientation:mixed;white-space:normal;shape-padding:0;isolation:auto;mix-blend-mode:normal;solid-color:#000;solid-opacity:1" fill="#3588cb" d="m 12.435414,1.3230605 c 0.59001,5.8e-5 1.0583,0.4760674 1.05833,1.0577946 l 5.3e-4,4.7639539 c 0,0.1140107 -0.058,0.1870362 -0.13281,0.2273724 0.15671,0.084838 0.397401,0.01168 0.397391,-0.2273724 l -5.3e-4,-4.7639539 c -3e-5,-0.5817272 -0.468321,-1.0577366 -1.058331,-1.0577946 z" color="#000" enable-background="accumulate" font-family="sans-serif" font-weight="400" overflow="visible"/><path fill="#e4eff8" d="m 1.8522282,7.1435774 c 0,0.146116 -0.1184611,0.2645676 -0.2645902,0.2645686 -0.1461291,-1e-6 -0.2645902,-0.1184526 -0.2645902,-0.2645686 0,-0.1461161 0.1184611,-0.2645677 0.2645902,-0.2645687 0.1461291,1e-6 0.2645902,0.1184526 0.2645902,0.2645687 z"/><path style="line-height:normal;font-variant-ligatures:normal;font-variant-position:normal;font-variant-caps:normal;font-variant-numeric:normal;font-variant-alternates:normal;font-feature-settings:normal;text-indent:0;text-align:start;text-decoration-line:none;text-decoration-style:solid;text-decoration-color:#000;text-transform:none;text-orientation:mixed;white-space:normal;shape-padding:0;isolation:auto;mix-blend-mode:normal;solid-color:#000;solid-opacity:1" fill="#e4eff8" d="m 3.4406093,7.6719087 c 0.6960805,10e-7 1.368581,-0.075808 1.9199214,-0.2206985 0.3038952,-0.075128 0.2485421,-0.5226475 -0.06447,-0.5214925 -0.02374,7.7e-5 -0.04738,0.0034 -0.07027,0.0098 -0.4918404,0.1292424 -1.1281808,0.2031089 -1.7851513,0.2031029 -0.2609302,-1.2e-5 -0.5213003,-0.01061 -0.7714905,-0.033199 -0.3516203,-0.031339 -0.3985203,0.495995 -0.0469,0.5273293 0.2667802,0.024099 0.5419004,0.035149 0.8183604,0.035158 z" color="#000" enable-background="accumulate" font-family="sans-serif" font-weight="400" overflow="visible"/><path fill="#e4eff8" d="m 1.8522282,9.2604626 c 0,0.1461161 -0.1184611,0.2645677 -0.2645902,0.2645687 -0.1461291,-1e-6 -0.2645902,-0.1184526 -0.2645902,-0.2645687 0,-0.146116 0.1184611,-0.2645676 0.2645902,-0.2645686 0.1461291,1e-6 0.2645902,0.1184526 0.2645902,0.2645686 z"/><path style="line-height:normal;font-variant-ligatures:normal;font-variant-position:normal;font-variant-caps:normal;font-variant-numeric:normal;font-variant-alternates:normal;font-feature-settings:normal;text-indent:0;text-align:start;text-decoration-line:none;text-decoration-style:solid;text-decoration-color:#000;text-transform:none;text-orientation:mixed;white-space:normal;shape-padding:0;isolation:auto;mix-blend-mode:normal;solid-color:#000;solid-opacity:1" fill="#e4eff8" d="m 3.4406093,9.789054 c 0.6960805,10e-7 1.368581,-0.075809 1.9199214,-0.2206986 0.3038952,-0.075128 0.2485421,-0.5226474 -0.06447,-0.5214924 -0.02374,7.7e-5 -0.04738,0.0034 -0.07027,0.0098 -0.4918404,0.1292414 -1.1281808,0.2031079 -1.7851513,0.2031019 -0.2609302,-1.1e-5 -0.5213003,-0.01061 -0.7714905,-0.033199 -0.3515633,-0.031269 -0.3984633,0.496065 -0.0469,0.5273304 0.2667802,0.0241 0.5419004,0.035149 0.8183604,0.035158 z" color="#000" enable-background="accumulate" font-family="sans-serif" font-weight="400" overflow="visible"/><path fill="#e4eff8" d="m 1.8522082,5.0269621 c 0,0.146117 -0.1184601,0.2645687 -0.2645902,0.2645697 -0.1461301,-10e-7 -0.2645902,-0.1184527 -0.2645902,-0.2645697 0,-0.1461165 0.1184611,-0.2645676 0.2645902,-0.2645686 0.1461291,1e-6 0.2645902,0.1184521 0.2645902,0.2645686 z"/><path style="line-height:normal;font-variant-ligatures:normal;font-variant-position:normal;font-variant-caps:normal;font-variant-numeric:normal;font-variant-alternates:normal;font-feature-settings:normal;text-indent:0;text-align:start;text-decoration-line:none;text-decoration-style:solid;text-decoration-color:#000;text-transform:none;text-orientation:mixed;white-space:normal;shape-padding:0;isolation:auto;mix-blend-mode:normal;solid-color:#000;solid-opacity:1" fill="#e4eff8" d="m 3.4406493,5.0274241 c -0.2609202,-1e-6 -0.5213003,-0.01257 -0.7714905,-0.035159 -0.3515633,-0.031266 -0.3984633,0.4960673 -0.0469,0.5273334 0.2667802,0.02409 0.5419004,0.037109 0.8183606,0.037109 0.6960705,0 1.368581,-0.075798 1.9199214,-0.2206985 0.3415602,-0.064136 0.2535401,-0.5752758 -0.08982,-0.521487 -0.01524,0.00195 -0.03027,0.00523 -0.04492,0.00979 -0.4918306,0.1292466 -1.128181,0.2031121 -1.7851515,0.2031121 z" color="#000" enable-background="accumulate" font-family="sans-serif" font-weight="400" overflow="visible"/></svg>