<svg xmlns="http://www.w3.org/2000/svg" xmlns:svgjs="http://svgjs.com/svgjs" xmlns:xlink="http://www.w3.org/1999/xlink" width="288" height="288"><svg xmlns="http://www.w3.org/2000/svg" width="288" height="288" viewBox="0 0 60 60"><path fill="#3871ec" d="M46.84 30.87c0 4.35-3.54 7.89-7.9 7.89H21.05c-4.35 0-7.89-3.54-7.89-7.89s3.54-7.89 7.89-7.89c.38 0 .75.03 1.11.08.46-3.92 3.8-6.97 7.84-6.97s7.38 3.05 7.84 6.97c.36-.05.73-.08 1.1-.08 4.36 0 7.9 3.54 7.9 7.89z" class="color3773b5 svgShape"/><path fill="#44464a" d="M30 5C16.21 5 5 16.21 5 30c0 .55.45 1 1 1s1-.45 1-1C7 17.32 17.32 7 30 7s23 10.32 23 23-10.32 23-23 23c-6.58 0-12.67-2.73-17.03-7.55h3.22c.55 0 1-.45 1-1s-.45-1-1-1h-5.36c-.04 0-.07.02-.11.02-.07.01-.13.02-.2.04s-.12.05-.18.09c-.03.02-.07.03-.1.05-.02.01-.03.03-.04.05-.05.05-.1.1-.14.16-.04.05-.07.1-.1.15-.03.06-.04.12-.06.18-.02.07-.04.13-.04.2 0 .02-.01.04-.01.07v5.36c0 .55.45 1 1 1s1-.45 1-1v-2.63C16.55 52.18 23.02 55 30 55c13.79 0 25-11.21 25-25S43.79 5 30 5z" class="color44464a svgShape"/></svg></svg>