<svg xmlns="http://www.w3.org/2000/svg" xmlns:svgjs="http://svgjs.com/svgjs" xmlns:xlink="http://www.w3.org/1999/xlink" width="288" height="288"><svg xmlns="http://www.w3.org/2000/svg" width="288" height="288" viewBox="0 0 60 60"><path fill="#3871ec" d="M55 28.99c0 6.11-4.97 11.08-11.08 11.08H16.08C9.97 40.07 5 35.1 5 28.99S9.97 17.9 16.08 17.9c1.01 0 1.99.14 2.95.41-.07-.53-.11-1.05-.11-1.58 0-6.11 4.97-11.08 11.08-11.08s11.08 4.97 11.08 11.08c0 .53-.04 1.05-.11 1.58.96-.27 1.94-.41 2.95-.41C50.03 17.89 55 22.88 55 28.99z" class="color3773b5 svgShape"/><path fill="#44464a" d="M23.52 40.07v10.39c0 .55-.45 1-1 1h-4.58c-.43 1.66-1.93 2.9-3.72 2.9-2.14 0-3.87-1.74-3.87-3.87s1.73-3.86 3.87-3.86c1.77 0 3.25 1.2 3.7 2.83h3.6v-9.39h2zm10.35 10.42c0 2.13-1.74 3.87-3.87 3.87s-3.86-1.74-3.86-3.87c0-1.78 1.22-3.27 2.86-3.71v-6.71h2v6.71c1.65.43 2.87 1.92 2.87 3.71zm15.78 0a3.87 3.87 0 0 1-3.86 3.87c-1.8 0-3.3-1.24-3.73-2.9h-4.58c-.55 0-1-.45-1-1V40.07h2v9.39h3.6c.46-1.63 1.94-2.83 3.71-2.83 2.13 0 3.86 1.73 3.86 3.86z" class="color44464a svgShape"/></svg></svg>