<svg xmlns="http://www.w3.org/2000/svg" xmlns:svgjs="http://svgjs.com/svgjs" xmlns:xlink="http://www.w3.org/1999/xlink" width="288" height="288"><svg xmlns="http://www.w3.org/2000/svg" width="288" height="288" enable-background="new 0 0 60 60" viewBox="0 0 60 60"><path fill="#44464a" d="M54 13.99h-8.68v38.76H54c.55 0 1-.44 1-1V14.99C55 14.45 54.55 13.99 54 13.99zM52.98 27.92h-5.83c-.56 0-1-.45-1-1 0-.56.44-1 1-1h5.83c.56 0 1 .44 1 1C53.98 27.47 53.54 27.92 52.98 27.92zM52.98 22.85h-5.83c-.56 0-1-.45-1-1s.44-1 1-1h5.83c.56 0 1 .45 1 1S53.54 22.85 52.98 22.85zM5 14.99v36.76c0 .56.44 1 1 1h8.67V13.99H6C5.44 13.99 5 14.45 5 14.99zM7.01 20.85h5.83c.56 0 1 .45 1 1s-.44 1-1 1H7.01c-.56 0-1-.45-1-1S6.45 20.85 7.01 20.85zM7.01 25.92h5.83c.56 0 1 .44 1 1 0 .55-.44 1-1 1H7.01c-.56 0-1-.45-1-1C6.01 26.36 6.45 25.92 7.01 25.92z" class="color44464a svgShape"/><path fill="#3871ec" d="M42.32,7.24H16.67v45.51h26.65V8.24C43.32,7.68,42.87,7.24,42.32,7.24z M22.33,26.92c0-0.56,0.45-1,1-1
					h2.75c0.55,0,1,0.44,1,1c0,0.55-0.45,1-1,1h-2.75C22.78,27.92,22.33,27.47,22.33,26.92z M33.45,46.48
					c-0.3,0.53-0.75,0.97-1.29,1.26c-3.85,2.04-7.74-1.85-5.7-5.7c0.29-0.54,0.73-0.99,1.26-1.29
					C31.63,38.52,35.69,42.58,33.45,46.48z M36.66,21.96H23.33c-0.55,0-1-0.44-1-1c0-0.55,0.45-1,1-1h13.33c0.55,0,1,0.45,1,1
					C37.66,21.52,37.21,21.96,36.66,21.96z M36.66,15.99H23.33c-0.55,0-1-0.44-1-1c0-0.55,0.45-1,1-1h13.33c0.55,0,1,0.45,1,1
					C37.66,15.55,37.21,15.99,36.66,15.99z" class="color3773b5 svgShape"/></svg></svg>