<svg xmlns="http://www.w3.org/2000/svg" xmlns:svgjs="http://svgjs.com/svgjs" xmlns:xlink="http://www.w3.org/1999/xlink" width="288" height="288"><svg xmlns="http://www.w3.org/2000/svg" width="288" height="288" viewBox="0 0 60 60"><path fill="#44464a" d="m27.67 38.99-1.11-1.1.83-.83-4.52-4.52-.83.83-1.11-1.1-1.33-1.33c-.39-.39-1.02-.39-1.41 0s-.39 1.03 0 1.42l.62.62-9.91 9.91c-2.24 2.25-2.24 5.9 0 8.14a5.715 5.715 0 0 0 4.07 1.69c1.48 0 2.95-.56 4.08-1.69l9.92-9.92.62.63a1.001 1.001 0 0 0 1.41 0c.39-.39.39-1.03 0-1.42l-1.33-1.33zm16.96-19.18 3.39-.91c.25-.07.46-.23.6-.44l4.17-6.85c.24-.4.18-.91-.14-1.23l-3.11-3.1a.997.997 0 0 0-1.23-.15l-6.83 4.17c-.22.14-.38.35-.45.6l-.92 3.39-7.58 7.58 4.52 4.52 7.58-7.58z" class="color44464a svgShape"/><path fill="#3871ec" d="M54.58 47.36c-.1.34-.37.6-.71.69a.997.997 0 0 1-.96-.26l-5.24-5.24-4.59.52-.53 4.6 5.24 5.24c.25.25.35.61.26.95-.09.35-.35.62-.69.72-.99.28-2 .42-2.99.42a10.63 10.63 0 0 1-10.12-13.9L18.91 25.75a10.63 10.63 0 0 1-10.79-2.6 10.631 10.631 0 0 1-2.69-10.51c.1-.33.37-.6.71-.68.35-.09.71.01.96.26l5.24 5.24 4.6-.53.52-4.59-5.24-5.24a1.003 1.003 0 0 1 .43-1.67 10.62 10.62 0 0 1 10.5 2.69c2.84 2.83 3.82 7 2.6 10.79L41.1 34.26a10.62 10.62 0 0 1 10.79 2.59c2.74 2.75 3.78 6.78 2.69 10.51z" class="color3773b5 svgShape"/></svg></svg>