<svg xmlns="http://www.w3.org/2000/svg" xmlns:svgjs="http://svgjs.com/svgjs" xmlns:xlink="http://www.w3.org/1999/xlink" width="288" height="288"><svg xmlns="http://www.w3.org/2000/svg" width="288" height="288" enable-background="new 0 0 60 60" viewBox="0 0 60 60"><path fill="#3871ec" d="M38.91,10.89v15.82c0,0.55-0.45,1-1,1H22.1c-0.56,0-1-0.45-1-1V10.89c0-0.55,0.44-1,1-1h15.81
					C38.46,9.89,38.91,10.34,38.91,10.89z" class="color3773b5 svgShape"/><path fill="#44464a" d="M14.25 41.86v7.25c0 .56-.44 1-1 1H6c-.55 0-1-.44-1-1v-7.25c0-.55.45-1 1-1h7.25C13.81 40.86 14.25 41.31 14.25 41.86zM34.63 41.86v7.25c0 .56-.45 1-1 1h-7.25c-.55 0-1-.44-1-1v-7.25c0-.55.45-1 1-1h7.25C34.18 40.86 34.63 41.31 34.63 41.86zM55 41.86v7.25c0 .56-.44 1-1 1h-7.25c-.55 0-1-.44-1-1v-7.25c0-.55.45-1 1-1H54C54.56 40.86 55 41.31 55 41.86z" class="color44464a svgShape"/><path fill="#44464a" d="M51.38,34.29v7.57c0,0.55-0.45,1-1,1s-1-0.45-1-1v-6.57H31v6.57c0,0.55-0.44,1-1,1c-0.55,0-1-0.45-1-1
					v-6.57H10.63v6.57c0,0.55-0.45,1-1,1s-1-0.45-1-1v-7.57c0-0.56,0.45-1,1-1H29v-5.58h2v5.58h19.38
					C50.93,33.29,51.38,33.73,51.38,34.29z" class="color44464a svgShape"/></svg></svg>