<svg xmlns="http://www.w3.org/2000/svg" xmlns:svgjs="http://svgjs.com/svgjs" xmlns:xlink="http://www.w3.org/1999/xlink" width="288" height="288"><svg xmlns="http://www.w3.org/2000/svg" width="288" height="288" viewBox="0 0 60 60"><path fill="#44464a" d="M13.9 18.52c-.61-.61-.95-1.43-.95-2.29 0-.86.34-1.67.95-2.28s1.45-.92 2.29-.92c.83 0 1.67.31 2.28.92 1.01 1.01 1.19 2.52.58 3.74l2.34 2.33c.39.39.39 1.02 0 1.41a.992.992 0 0 1-1.42 0l-2.33-2.33a3.199 3.199 0 0 1-3.74-.58zm25.51 2.03a.996.996 0 0 1 0-1.41l2.33-2.34a3.22 3.22 0 0 1 .59-3.73c1.22-1.22 3.35-1.22 4.56 0a3.208 3.208 0 0 1 0 4.56c-.61.61-1.42.95-2.28.95-.52 0-1.01-.13-1.45-.36l-2.34 2.33a.976.976 0 0 1-1.41 0zm8.37 20.94c.61.61.94 1.42.94 2.29 0 .86-.33 1.67-.94 2.28-.61.61-1.42.95-2.29.95a3.216 3.216 0 0 1-2.86-4.69l-2.34-2.33c-.39-.39-.39-1.03 0-1.42s1.02-.39 1.41 0l2.35 2.35c1.21-.59 2.75-.4 3.73.57zM34.69 50.1c0 1.79-1.45 3.23-3.23 3.23s-3.23-1.44-3.23-3.23c0-1.43.94-2.63 2.23-3.05v-3.3c0-.56.45-1 1-1 .56 0 1 .44 1 1v3.3c1.29.42 2.23 1.62 2.23 3.05zM55 29.38c0 1.78-1.44 3.23-3.23 3.23-1.43 0-2.63-.94-3.05-2.23h-3.3c-.56 0-1-.45-1-1s.44-1 1-1h3.3a3.213 3.213 0 0 1 3.05-2.23c1.79 0 3.23 1.45 3.23 3.23zm-40.41 2.25h-3.3c-.43 1.29-1.63 2.23-3.06 2.23-1.78 0-3.23-1.45-3.23-3.23s1.45-3.23 3.23-3.23c1.43 0 2.63.94 3.06 2.23h3.3c.55 0 1 .45 1 1s-.45 1-1 1zm7.68 7.83c.39.39.39 1.02 0 1.41l-2.34 2.33c.62 1.22.43 2.73-.58 3.74-.61.61-1.42.95-2.28.95-.87 0-1.68-.34-2.29-.95-.61-.61-.94-1.42-.94-2.28s.33-1.68.94-2.29c.98-.97 2.52-1.15 3.73-.57l2.35-2.34c.39-.4 1.02-.4 1.41 0zM26.98 9.9c0-1.78 1.45-3.23 3.23-3.23 1.79 0 3.23 1.45 3.23 3.23 0 1.43-.94 2.63-2.23 3.06v3.3c0 .55-.44 1-1 1-.55 0-1-.45-1-1v-3.3c-1.29-.43-2.23-1.63-2.23-3.06z" class="color44464a svgShape"/><path fill="#3871ec" d="M43.37 31.53c0 3.47-2.83 6.29-6.29 6.29H23.35c-3.46 0-6.29-2.82-6.29-6.29 0-3.46 2.83-6.28 6.29-6.28.19 0 .39.01.58.02v-.14a6.29 6.29 0 0 1 6.28-6.28c3.47 0 6.29 2.82 6.29 6.28v.14c.19-.01.39-.02.58-.02 3.46 0 6.29 2.82 6.29 6.28z" class="color3773b5 svgShape"/></svg></svg>