<svg xmlns="http://www.w3.org/2000/svg" xmlns:svgjs="http://svgjs.com/svgjs" xmlns:xlink="http://www.w3.org/1999/xlink" width="288" height="288"><svg xmlns="http://www.w3.org/2000/svg" width="288" height="288" enable-background="new 0 0 60 60" viewBox="0 0 60 60"><path fill="#3b4651" d="M47.1328468 29.7899876H35.1069145c-2.0374146 1.6686287-3.9028835 2.5025082-4.0756683 2.5790119-.3868618.1547585-.7135391.2149162-1.0316143.2149162-.3266773 0-.6361465-.0601578-.9542198-.1805229l-.0773945-.0343933c-.1719437-.0765038-2.0374126-.9103832-4.0739861-2.5790119H12.8672571c-.4728088 0-.8596706.3877277-.8596706.8596706v8.2708855c0 .4719696.3868618.8596725.8596706.8596725h34.2655907c.4737015 0 .8596725-.3877029.8596725-.8596725v-8.2708855C47.9925194 30.1777153 47.6065483 29.7899876 47.1328468 29.7899876M17.3461552 35.6787338c0 .473671-.387701.8596687-.8596687.8596687-.4822521 0-.8596706-.3859978-.8596706-.8596687v-1.7881012c0-.4728355.3774185-.8596725.8596706-.8596725.4719677 0 .8596687.386837.8596687.8596725V35.6787338zM20.6464195 35.6787338c0 .473671-.3868618.8596687-.8596706.8596687-.4805737 0-.8596687-.3859978-.8596687-.8596687v-1.7881012c0-.4728355.3790951-.8596725.8596687-.8596725.4728088 0 .8596706.386837.8596706.8596725V35.6787338zM23.9475746 35.6787338c0 .473671-.3868618.8596687-.8596687.8596687-.4805737 0-.8596706-.3859978-.8596706-.8596687v-1.7881012c0-.4728355.379097-.8596725.8596706-.8596725.4728069 0 .8596687.386837.8596687.8596725V35.6787338zM43.5136719 35.6443405H28.0396118c-.4814644 0-.8596687-.3859711-.8596687-.8596725 0-.4728088.3782043-.8596687.8596687-.8596687h15.4740601c.4822502 0 .8596687.3868599.8596687.8596687C44.3733406 35.2583694 43.9959221 35.6443405 43.5136719 35.6443405M47.1327438 41.4987679H12.8671522c-.4728088 0-.8596706.3877258-.8596706.8596687v8.2708855c0 .4719696.3868618.8596725.8596706.8596725h34.2655907c.4736977 0 .8596687-.3877029.8596687-.8596725v-8.2708855C47.9924126 41.8864937 47.6064415 41.4987679 47.1327438 41.4987679M17.3417492 47.385807c0 .4753799-.3842907.8596687-.8596706.8596687s-.8596697-.3842888-.8596697-.8596687v-1.7838249c0-.4754066.3842897-.8596725.8596697-.8596725s.8596706.3842659.8596706.8596725V47.385807zM20.6429043 47.385807c0 .4753799-.3851299.8596687-.8596706.8596687-.4754314 0-.8596687-.3842888-.8596687-.8596687v-1.7838249c0-.4754066.3842373-.8596725.8596687-.8596725.4745407 0 .8596706.3842659.8596706.8596725V47.385807zM23.9440079 47.385807c0 .4753799-.3842392.8596687-.8596706.8596687-.4745388 0-.8596706-.3842888-.8596706-.8596687v-1.7838249c0-.4754066.3851318-.8596725.8596706-.8596725.4754314 0 .8596706.3842659.8596706.8596725V47.385807zM43.517868 47.3531189H28.0368843c-.4753799 0-.8596706-.3842659-.8596706-.8596725 0-.4753761.3842907-.8596687.8596706-.8596687H43.517868c.4753799 0 .8596725.3842926.8596725.8596687C44.3775406 46.968853 43.993248 47.3531189 43.517868 47.3531189" class="color3b4651 svgShape"/><path fill="#3871ec" d="M38.3812561,12.0721779l-8.0370522-3.4902582c-0.2243614-0.0945511-0.4642029-0.0945511-0.6885643,0
		l-8.0379467,3.4902582c-0.3180733,0.1375504-0.5149403,0.4479103-0.5149403,0.7909079v6.2420778
		c0,7.8565025,8.2012844,11.5367546,8.552887,11.6906509c0.1126003,0.0429726,0.2243614,0.0687618,0.3438358,0.0687618
		c0.1203671,0,0.2330189-0.0257893,0.3447285-0.0687618c0.3524933-0.1538963,8.552887-3.8341484,8.552887-11.6906509v-6.2420778
		C38.8970909,12.5200882,38.700222,12.2097282,38.3812561,12.0721779 M34.5308456,17.2301979l-5.2706738,5.2697792
		c-0.162447,0.1633396-0.3859692,0.2493134-0.6008873,0.2493134c-0.2243633,0-0.4392796-0.0859737-0.610384-0.2493134
		l-2.57901-2.5790081c-0.3361244-0.3352585-0.3361244-0.8768539,0-1.2112732c0.3352833-0.3447285,0.875988-0.3447285,1.2112713,0
		l1.9781227,1.9686527l4.6593952-4.6594238c0.3343925-0.3361235,0.875988-0.3361235,1.2121658,0
		C34.8660774,16.353344,34.8660774,16.8949394,34.5308456,17.2301979" class="color2b79c2 svgShape"/></svg></svg>