<svg xmlns="http://www.w3.org/2000/svg" xmlns:svgjs="http://svgjs.com/svgjs" xmlns:xlink="http://www.w3.org/1999/xlink" width="288" height="288"><svg xmlns="http://www.w3.org/2000/svg" width="288" height="288" enable-background="new 0 0 60 60" viewBox="0 0 60 60"><path fill="#3871ec" d="M50.7610512,27.1372852l-3.1292114-0.4642029c-0.2320747-0.7995396-0.550148-1.5732117-0.9542236-2.3039627
		l1.882679-2.535984c0.2492867-0.3438892,0.21492-0.8166962-0.0859451-1.1261654l-2.8455048-2.8455048
		c-0.3009148-0.3009167-0.7823296-0.3352852-1.1176109-0.0859985l-2.54459,1.882679
		c-0.730751-0.3954144-1.4958191-0.713541-2.2953568-0.9542217l-0.4642029-3.1206055
		c-0.0687904-0.4212303-0.4298363-0.7306986-0.8510666-0.7306986h-4.0318527c-0.4298363,0-0.7908821,0.3094683-0.8510666,0.7306986
		l-0.4642525,3.1206055c-0.7994881,0.2406807-1.5645542,0.5588074-2.3039112,0.9542217l-2.535984-1.882679
		c-0.3438892-0.2492867-0.8166962-0.2149181-1.1176128,0.0859985l-2.8541107,2.8455048
		c-0.3008633,0.3008633-0.3352318,0.7822762-0.0773411,1.1261654l1.8817883,2.535984
		c-0.4031811,0.730751-0.7212543,1.5044231-0.9533291,2.3039627l-3.1301041,0.4642029
		c-0.4203377,0.0601826-0.7298584,0.4212284-0.7298584,0.8510647v4.0232468c0,0.4298363,0.3095207,0.7909355,0.7298584,0.8510666
		l3.1301041,0.4642563c0.2320747,0.7994843,0.550148,1.5731583,0.9533291,2.3039093l-1.8817883,2.5360336
		c-0.2578907,0.3438377-0.2235222,0.8252525,0.0773411,1.1261673l2.8541107,2.8455048
		c0.3009167,0.3008652,0.7737236,0.3352852,1.1176128,0.0859451l2.535984-1.882679
		c0.739357,0.3954697,1.5044231,0.7135429,2.3039112,0.9542236l0.4642525,3.1206055
		c0.0601845,0.4212799,0.4212303,0.730751,0.8510666,0.730751h4.0318527c0.4212303,0,0.7822762-0.3094711,0.8510666-0.730751
		l0.4642029-3.1206055c0.7995377-0.2406807,1.5646057-0.558754,2.2953568-0.9542236l2.54459,1.882679
		c0.3438873,0.2493401,0.8166962,0.21492,1.1176109-0.0859451l2.8455048-2.8455048
		c0.3008652-0.3095207,0.3352318-0.7823296,0.0859451-1.1261673l-1.882679-2.5360336
		c0.4040756-0.730751,0.7221489-1.504425,0.9542236-2.3039093l3.1292114-0.4642563
		c0.4126244-0.0601311,0.7306976-0.4212303,0.7306976-0.8510666v-4.0232468
		C51.4917488,27.5585136,51.1736755,27.1974678,50.7610512,27.1372852 M36.3358154,35.3299103
		c-2.9401093,0-5.3299637-2.3898544-5.3299637-5.3299103c0-2.9401093,2.3898544-5.3299637,5.3299637-5.3299637
		c2.9400558,0,5.3299103,2.3898544,5.3299103,5.3299637C41.6657257,32.9400558,39.2758713,35.3299103,36.3358154,35.3299103" class="color2b79c2 svgShape"/><path fill="#3b4651" d="M23.9823112 24.5751705c-.0773945.1805496-.146183.3610992-.2235241.5502014l-2.0804386.3094673c-.6361465.0946045-1.1777439.4126778-1.5731583.8596706h-2.7672729c-.4823036 0-.8596687-.3868103-.8596687-.8596706 0-.4728069.3773651-.8596687.8596687-.8596687H23.9823112zM19.4690437 29.1401196v1.7193413h-5.6824589c-.4728079 0-.8596697-.3868103-.8596697-.8596706 0-.4728088.3868618-.8596706.8596697-.8596706H19.4690437zM23.9823112 35.4244118H9.3679218c-.4728603 0-.8596706-.3868103-.8596706-.8596725 0-.472805.3868103-.8596687.8596706-.8596687h10.7372684c.3954144.4470444.9370117.7651176 1.5654449.8596687l2.0881519.3095207C23.8361282 35.0633621 23.9049168 35.2439117 23.9823112 35.4244118" class="color3b4651 svgShape"/></svg></svg>