<svg fill="#ffffff1a" xmlns="http://www.w3.org/2000/svg" enable-background="new 0 0 50 50" viewBox="0 0 50 50"><path d="M43,13c3.309,0,6-2.691,6-6s-2.691-6-6-6s-6,2.691-6,6c0,0.914,0.211,1.778,0.579,2.554l-13.298,9.25
	C23.191,17.692,21.676,17,20,17c-0.56,0-1.099,0.083-1.614,0.227l-2.963-6.306C16.978,9.836,18,8.036,18,6c0-3.309-2.691-6-6-6
	C8.691,0,6,2.691,6,6s2.691,6,6,6c0.56,0,1.099-0.083,1.614-0.227l2.963,6.306C15.021,19.164,14,20.964,14,23
	c0,1.373,0.468,2.635,1.247,3.647l-4.957,5.341C9.344,31.365,8.215,31,7,31c-3.309,0-6,2.691-6,6s2.691,6,6,6c3.309,0,6-2.691,6-6
	c0-1.373-0.468-2.635-1.247-3.647l4.957-5.341C17.655,28.635,18.785,29,20,29c0.523,0,1.027-0.074,1.511-0.2l4.152,9.217
	C24.058,39.095,23,40.926,23,43c0,3.309,2.691,6,6,6s6-2.691,6-6s-2.691-6-6-6c-0.523,0-1.027,0.074-1.511,0.2l-4.152-9.217
	c0.61-0.41,1.137-0.93,1.561-1.529l12.338,5.895C37.086,32.874,37,33.427,37,34c0,3.309,2.691,6,6,6s6-2.691,6-6s-2.691-6-6-6
	c-2.022,0-3.811,1.009-4.898,2.546l-12.338-5.895C25.914,24.126,26,23.573,26,23c0-0.914-0.211-1.778-0.579-2.554l13.298-9.25
	C39.809,12.308,41.324,13,43,13z M8,6c0-2.206,1.794-4,4-4c2.206,0,4,1.794,4,4s-1.794,4-4,4C9.794,10,8,8.206,8,6z M33,43
	c0,2.206-1.794,4-4,4s-4-1.794-4-4s1.794-4,4-4S33,40.794,33,43z M43,30c2.206,0,4,1.794,4,4s-1.794,4-4,4s-4-1.794-4-4
	S40.794,30,43,30z M7,41c-2.206,0-4-1.794-4-4s1.794-4,4-4c2.206,0,4,1.794,4,4S9.206,41,7,41z M20,27c-2.206,0-4-1.794-4-4
	s1.794-4,4-4c2.206,0,4,1.794,4,4S22.206,27,20,27z M43,3c2.206,0,4,1.794,4,4s-1.794,4-4,4s-4-1.794-4-4S40.794,3,43,3z"/></svg>
