<svg xmlns="http://www.w3.org/2000/svg" width="64" height="64" viewBox="0 0 16.933 16.933"><path fill="#549ad4" d="m 10.58333,10.31875 v 2.248958 c 0,0.51141 1.30305,0.926042 2.91042,0.926042 1.60738,0 2.91041,-0.414632 2.91041,-0.926042 V 10.31875 h -0.0331 c -0.2024,0.448509 -1.411659,0.79375 -2.877339,0.79375 -1.46568,0 -2.67495,-0.345241 -2.87735,-0.79375 z"/><path fill="#3588cb" d="m 16.37109,10.31875 c -0.06551,0.145163 -0.245083,0.277417 -0.496094,0.392741 v 1.591634 c 0,0.51141 -1.303036,0.926041 -2.910416,0.926041 -0.865278,0 -1.633691,-0.122433 -2.166793,-0.313159 0.432512,0.338856 1.47571,0.577743 2.69596,0.577743 1.60738,0 2.910417,-0.414632 2.910417,-0.926042 V 10.31875 Z"/><path fill="#549ad4" d="m 10.58333,8.2020827 v 2.2489583 c 0,0.51141 1.30305,0.926042 2.91042,0.926042 1.60738,0 2.91041,-0.414632 2.91041,-0.926042 V 8.2020827 h -0.0331 c -0.2024,0.448509 -1.411659,0.79375 -2.877339,0.79375 -1.46568,0 -2.67495,-0.345241 -2.87735,-0.79375 z"/><path fill="#3588cb" d="m 16.37109,8.2020827 c -0.06551,0.145164 -0.245083,0.277417 -0.496094,0.392741 v 1.5916343 c 0,0.51141 -1.303036,0.926042 -2.910416,0.926042 -0.865278,0 -1.633691,-0.122434 -2.166792,-0.313159 0.432511,0.338855 1.475709,0.577742 2.695959,0.577742 1.60738,0 2.910415,-0.414632 2.910415,-0.926042 V 8.2020827 Z"/><path fill="#549ad4" d="m 10.58333,6.2177586 v 2.1166161 c 0,0.51141 1.30305,0.926042 2.91042,0.926042 1.60738,0 2.91041,-0.414632 2.91041,-0.926042 V 6.2177586 h -0.0331 c -0.2024,0.448509 -1.411649,0.793749 -2.877339,0.793749 -1.46568,0 -2.67494,-0.34524 -2.87734,-0.793749 z"/><path fill="#3588cb" d="m 16.37109,6.2197336 c -0.06551,0.1451637 -0.245082,0.277417 -0.496094,0.3927409 v 1.4573172 c 0,0.51141 -1.303036,0.926041 -2.910416,0.926041 -0.865278,0 -1.633691,-0.122433 -2.166793,-0.313159 0.432512,0.338856 1.47571,0.577743 2.695959,0.577743 1.60738,0 2.910417,-0.414632 2.910417,-0.926042 V 6.2197336 Z"/><path fill="#549ad4" d="m 10.58333,4.1010926 v 2.1166161 c 0,0.51141 1.30305,0.926041 2.91042,0.926041 1.60738,0 2.91041,-0.414631 2.91041,-0.926041 V 4.1010926 h -0.0331 c -0.2024,0.448509 -1.411649,0.793749 -2.877339,0.793749 -1.46568,0 -2.67494,-0.34524 -2.87734,-0.793749 z"/><path fill="#3588cb" d="m 16.37109,4.1030676 c -0.06551,0.1451637 -0.245082,0.277417 -0.496094,0.3927409 v 1.4573172 c 0,0.51141 -1.303036,0.926041 -2.910416,0.926041 -0.865278,0 -1.633691,-0.122433 -2.166793,-0.313159 0.432512,0.338856 1.47571,0.577742 2.695959,0.577742 1.60738,0 2.910417,-0.414631 2.910417,-0.926041 V 4.1030676 Z"/><path fill="#e4eff8" d="m 16.404172,4.1009893 c 0,0.5114044 -1.303038,0.9259796 -2.910417,0.9259795 -1.607378,-10e-8 -2.910416,-0.4145752 -2.910416,-0.9259795 0,-0.5114043 1.303038,-0.9259794 2.910416,-0.9259795 1.607379,-1e-7 2.910417,0.4145751 2.910417,0.9259795 z"/><path fill="#c4dcf0" d="m 15.875,3.5703256 c 10e-7,5.333e-4 10e-7,0.00107 0,0.0016 1.08e-4,0.5114292 -1.302963,0.9260426 -2.91042,0.926042 -0.948837,-3.993e-4 -1.837497,-0.1479308 -2.38125,-0.395325 0.0026,0.5108238 1.304864,0.9244934 2.91042,0.9244921 1.607453,-1.2e-6 2.910519,-0.4146141 2.91041,-0.9260421 -0.0011,-0.1899881 -0.185825,-0.3752718 -0.52916,-0.530717 z"/><path fill="#38668c" d="m 0.52916117,10.31875 v 2.248958 c 0,0.51141 1.30305003,0.926042 2.91042003,0.926042 1.60738,0 2.91041,-0.414632 2.91041,-0.926042 V 10.31875 h -0.0331 c -0.2024,0.448509 -1.411659,0.79375 -2.877339,0.79375 -1.46568,0 -2.67495003,-0.345241 -2.87735003,-0.79375 z"/><path fill="#2c5170" d="m 6.3169212,10.31875 c -0.06551,0.145163 -0.245083,0.277417 -0.496094,0.392741 v 1.591634 c 0,0.51141 -1.303036,0.926041 -2.910416,0.926041 -0.865278,0 -1.633691,-0.122433 -2.16679303,-0.313159 0.43251203,0.338856 1.47571003,0.577743 2.69596003,0.577743 1.60738,0 2.910417,-0.414632 2.910417,-0.926042 V 10.31875 Z"/><path fill="#38668c" d="m 0.52916117,8.2020827 v 2.2489583 c 0,0.51141 1.30305003,0.926042 2.91042003,0.926042 1.60738,0 2.91041,-0.414632 2.91041,-0.926042 V 8.2020827 h -0.0331 c -0.2024,0.448509 -1.411659,0.79375 -2.877339,0.79375 -1.46568,0 -2.67495003,-0.345241 -2.87735003,-0.79375 z"/><path fill="#2c5170" d="m 6.3169212,8.2020827 c -0.06551,0.145164 -0.245083,0.277417 -0.496094,0.392741 v 1.5916343 c 0,0.51141 -1.303036,0.926042 -2.910416,0.926042 -0.865278,0 -1.633691,-0.122434 -2.16679203,-0.313159 0.43251103,0.338855 1.47570903,0.577742 2.69595903,0.577742 1.60738,0 2.910415,-0.414632 2.910415,-0.926042 V 8.2020827 Z"/><path fill="#38668c" d="m 0.52916117,6.2177586 v 2.1166161 c 0,0.51141 1.30305003,0.926042 2.91042003,0.926042 1.60738,0 2.91041,-0.414632 2.91041,-0.926042 V 6.2177586 h -0.0331 c -0.2024,0.448509 -1.411649,0.793749 -2.877339,0.793749 -1.46568,0 -2.67494003,-0.34524 -2.87734003,-0.793749 z"/><path fill="#2c5170" d="m 6.3169212,6.2197336 c -0.06551,0.1451637 -0.245082,0.277417 -0.496094,0.3927409 v 1.4573172 c 0,0.51141 -1.303036,0.926041 -2.910416,0.926041 -0.865278,0 -1.633691,-0.122433 -2.16679303,-0.313159 0.43251203,0.338856 1.47571003,0.577743 2.69595903,0.577743 1.60738,0 2.910417,-0.414632 2.910417,-0.926042 V 6.2197336 Z"/><path fill="#38668c" d="m 0.52916117,4.1010926 v 2.1166161 c 0,0.51141 1.30305003,0.926041 2.91042003,0.926041 1.60738,0 2.91041,-0.414631 2.91041,-0.926041 V 4.1010926 h -0.0331 c -0.2024,0.448509 -1.411649,0.793749 -2.877339,0.793749 -1.46568,0 -2.67494003,-0.34524 -2.87734003,-0.793749 z"/><path fill="#2c5170" d="m 6.3169212,4.1030676 c -0.06551,0.1451637 -0.245082,0.277417 -0.496094,0.3927409 v 1.4573172 c 0,0.51141 -1.303036,0.926041 -2.910416,0.926041 -0.865278,0 -1.633691,-0.122433 -2.16679303,-0.313159 0.43251203,0.338856 1.47571003,0.577742 2.69595903,0.577742 1.60738,0 2.910417,-0.414631 2.910417,-0.926041 V 4.1030676 Z"/><path fill="#e4eff8" d="m 6.3500025,4.1009893 c 0,0.5114044 -1.3030379,0.9259795 -2.9104166,0.9259795 -1.6073787,0 -2.91041658,-0.4145751 -2.91041658,-0.9259795 0,-0.5114044 1.30303788,-0.9259795 2.91041658,-0.9259795 1.6073787,0 2.9104166,0.4145751 2.9104166,0.9259795 z"/><path fill="#c4dcf0" d="m 5.8208312,3.5703256 c 1.4e-6,5.333e-4 1.4e-6,0.00107 0,0.0016 1.085e-4,0.5114292 -1.3029633,0.9260426 -2.91042,0.926042 C 1.961574,4.4975683 1.0729144,4.3500368 0.52916117,4.1026426 0.53174017,4.6134664 1.8340251,5.027136 3.4395812,5.0271347 c 1.607453,-1.2e-6 2.9105187,-0.4146141 2.91041,-0.9260421 -0.00109,-0.1899881 -0.1858255,-0.3752718 -0.52916,-0.530717 z"/><path fill="#e4eff8" d="m 5.5562357,13.229166 v 2.248958 c 0,0.51141 1.30305,0.926042 2.91042,0.926042 1.6073803,0 2.9104103,-0.414632 2.9104103,-0.926042 v -2.248958 h -0.0331 c -0.2024,0.448509 -1.4116593,0.79375 -2.8773393,0.79375 -1.46568,0 -2.67495,-0.345241 -2.87735,-0.79375 z"/><path fill="#c4dcf0" d="m 11.343996,13.229166 c -0.06551,0.145163 -0.245083,0.277417 -0.496094,0.392741 v 1.591634 c 0,0.51141 -1.3030363,0.926041 -2.9104163,0.926041 -0.865278,0 -1.633691,-0.122433 -2.166793,-0.313159 0.432512,0.338856 1.47571,0.577743 2.69596,0.577743 1.6073803,0 2.9104173,-0.414632 2.9104173,-0.926042 v -2.248958 z"/><path fill="#e4eff8" d="m 5.5562357,11.112499 v 2.248958 c 0,0.51141 1.30305,0.926042 2.91042,0.926042 1.6073803,0 2.9104103,-0.414632 2.9104103,-0.926042 v -2.248958 h -0.0331 c -0.2024,0.448509 -1.4116593,0.79375 -2.8773393,0.79375 -1.46568,0 -2.67495,-0.345241 -2.87735,-0.79375 z"/><path fill="#c4dcf0" d="m 11.343996,11.112499 c -0.06551,0.145164 -0.245083,0.277417 -0.496094,0.392741 v 1.591634 c 0,0.51141 -1.3030363,0.926042 -2.9104163,0.926042 -0.865278,0 -1.633691,-0.122434 -2.166792,-0.313159 0.432511,0.338855 1.475709,0.577742 2.695959,0.577742 1.6073803,0 2.9104153,-0.414632 2.9104153,-0.926042 v -2.248958 z"/><path fill="#e4eff8" d="m 5.5562357,9.1281749 v 2.1166161 c 0,0.51141 1.30305,0.926042 2.91042,0.926042 1.6073803,0 2.9104103,-0.414632 2.9104103,-0.926042 V 9.1281749 h -0.0331 c -0.2024,0.448509 -1.4116493,0.793749 -2.8773393,0.793749 -1.46568,0 -2.67494,-0.34524 -2.87734,-0.793749 z"/><path fill="#c4dcf0" d="m 11.343996,9.1301499 c -0.06551,0.1451637 -0.245082,0.277417 -0.496094,0.3927409 v 1.4573172 c 0,0.51141 -1.3030363,0.926041 -2.9104163,0.926041 -0.865278,0 -1.633691,-0.122433 -2.166793,-0.313159 0.432512,0.338856 1.47571,0.577743 2.695959,0.577743 1.6073803,0 2.9104173,-0.414632 2.9104173,-0.926042 V 9.1301499 Z"/><path fill="#e4eff8" d="M 5.5562357,7.0115089 V 9.128125 c 0,0.51141 1.30305,0.926041 2.91042,0.926041 1.6073803,0 2.9104103,-0.414631 2.9104103,-0.926041 V 7.0115089 h -0.0331 c -0.2024,0.448509 -1.4116493,0.793749 -2.8773393,0.793749 -1.46568,0 -2.67494,-0.34524 -2.87734,-0.793749 z"/><path fill="#c4dcf0" d="m 11.343996,7.0134839 c -0.06551,0.1451637 -0.245082,0.277417 -0.496094,0.3927409 V 8.863542 c 0,0.51141 -1.3030363,0.926041 -2.9104163,0.926041 -0.865278,0 -1.633691,-0.122433 -2.166793,-0.313159 0.432512,0.338856 1.47571,0.577742 2.695959,0.577742 1.6073803,0 2.9104173,-0.414631 2.9104173,-0.926041 V 7.0134839 Z"/><path fill="#549ad4" d="m 11.377077,7.0114055 c 0,0.5114043 -1.303038,0.9259795 -2.9104165,0.9259795 -1.6073787,0 -2.9104166,-0.4145751 -2.9104166,-0.9259795 0,-0.5114044 1.3030379,-0.9259795 2.9104166,-0.9259795 1.6073785,0 2.9104165,0.4145752 2.9104165,0.9259795 z"/><path fill="#3588cb" d="m 10.847906,6.4807419 c 10e-7,5.333e-4 10e-7,0.00107 0,0.0016 1.08e-4,0.5114292 -1.3029634,0.9260427 -2.9104203,0.926042 -0.9488372,-3.993e-4 -1.8374967,-0.1479308 -2.38125,-0.395325 0.00258,0.5108238 1.3048639,0.9244934 2.91042,0.9244921 1.6074533,-1.1e-6 2.9105193,-0.4146141 2.9104103,-0.9260421 -0.0011,-0.1899881 -0.185825,-0.3752718 -0.52916,-0.530717 z"/><path style="line-height:normal;font-variant-ligatures:normal;font-variant-position:normal;font-variant-caps:normal;font-variant-numeric:normal;font-variant-alternates:normal;font-feature-settings:normal;text-indent:0;text-align:start;text-decoration-line:none;text-decoration-style:solid;text-decoration-color:#000;text-transform:none;text-orientation:mixed;white-space:normal;shape-padding:0;isolation:auto;mix-blend-mode:normal;solid-color:#000;solid-opacity:1" fill="#549ad4" d="M3.9679687 1.0585938c-.4351611 0-.7929688.3578077-.7929688.7929687v1.8535156c0 .3528645.5292969.3528645.5292969 0V1.8515625c0-.1511556.1125163-.2636719.2636719-.2636719h3.9695255c.3528644 0 .3528644-.5292968 0-.5292968zM8.9960882 1.5878906h3.9673228c.151156 0 .265625.1125161.265625.2636719v1.8535156c0 .3528645.529297.3528645.529297 0V1.8515625c0-.4351608-.359761-.7929688-.794922-.7929687H8.996088z" color="#000" enable-background="accumulate" font-family="sans-serif" font-weight="400" overflow="visible"/><path fill="#3588cb" d="m 7.4548361,1.0588502 c -0.030365,0.084748 -0.046093,0.1740439 -0.046509,0.2640666 2.91e-4,0.09037 0.016029,0.1800253 0.046509,0.2651001 h 0.482658 c 0.3606882,0.008 0.3606882,-0.537166 0,-0.5291667 z"/><path style="line-height:normal;font-variant-ligatures:normal;font-variant-position:normal;font-variant-caps:normal;font-variant-numeric:normal;font-variant-alternates:normal;font-feature-settings:normal;text-indent:0;text-align:start;text-decoration-line:none;text-decoration-style:solid;text-decoration-color:#000;text-transform:none;text-orientation:mixed;white-space:normal;shape-padding:0;isolation:auto;mix-blend-mode:normal;solid-color:#000;solid-opacity:1" fill="#e4eff8" d="M 8.4628848,1.5839844 C 8.3167107,1.5855724 8.1995177,1.7053891 8.2011661,1.8515625 v 4.7636719 c 0,0.3528644 0.5292969,0.3528644 0.5292969,0 V 1.8515625 C 8.7321379,1.7030949 8.6113524,1.5823094 8.4628848,1.5839844 Z" color="#000" enable-background="accumulate" font-family="sans-serif" font-weight="400" overflow="visible"/><path fill="#c4dcf0" d="m 8.4630433,1.5838828 c -0.146326,0.00143 -0.2637064,0.1213608 -0.2619994,0.2676839 v 0.4826579 c 0.085207,0.030715 0.1750433,0.04662 0.2656168,0.047025 0.089819,-3.086e-4 0.1789349,-0.01586 0.2635499,-0.045992 V 1.8515667 C 8.7319411,1.7032207 8.6113924,1.5824389 8.4630433,1.5838828 Z"/><path fill="#549ad4" d="m 9.2604108,1.3229166 c 0,0.4383725 -0.3553711,0.7937436 -0.7937436,0.7937436 -0.4383725,0 -0.7937436,-0.3553711 -0.7937436,-0.7937436 0,-0.43837248 0.3553711,-0.79374357 0.7937436,-0.79374358 0.4383725,1e-8 0.7937436,0.3553711 0.7937436,0.79374358 z"/><path fill="#3588cb" d="m 8.4666607,0.52916683 c -0.09037,2.9862e-4 -0.1800252,0.0160276 -0.2651,0.0465088 0.3169601,0.11181366 0.5291364,0.41113748 0.5296834,0.74724117 -3.919e-4,0.3358357 -0.2120975,0.6350793 -0.52865,0.7472412 0.084748,0.030366 0.1740438,0.046093 0.2640666,0.046509 0.4383775,3.5e-6 0.7937535,-0.3553725 0.79375,-0.79375 3.6e-6,-0.43837755 -0.3553725,-0.7937537 -0.79375,-0.79375017 z"/><path style="line-height:normal;font-variant-ligatures:normal;font-variant-position:normal;font-variant-caps:normal;font-variant-numeric:normal;font-variant-alternates:normal;font-feature-settings:normal;text-indent:0;text-align:start;text-decoration-line:none;text-decoration-style:solid;text-decoration-color:#000;text-transform:none;text-orientation:mixed;white-space:normal;shape-padding:0;isolation:auto;mix-blend-mode:normal;solid-color:#000;solid-opacity:1" fill="#3588cb" d="M12.698449 1.0588502c.435161-1e-7.794784.3575557.794784.7927165v1.8536336c.000018.094342-.05019.1815599-.131775.2289267.176308.1016918.396627-.025395.396875-.2289267V1.8515667c0-.4351608-.360139-.7927166-.7953-.7927165zM3.7027465 1.5880169c-.1511556 0-.2635498.1123942-.2635498.2635498v1.8536336c.0000187.094342-.050186.1815599-.131775.2289267.1763086.1016918.3966276-.025395.396875-.2289267V1.8515667c0-.1511556.1123942-.2635498.2635499-.2635498z" color="#000" enable-background="accumulate" font-family="sans-serif" font-weight="400" overflow="visible"/><path fill="#e4eff8" d="m 5.0194877,5.8206627 c 1e-7,0.1461203 0.118462,0.2645741 0.264592,0.264574 0.14613,10e-8 0.2645919,-0.1184537 0.264592,-0.264574 -1e-7,-0.1461203 -0.118462,-0.2645741 -0.264592,-0.264574 -0.14613,-1e-7 -0.2645919,0.1184537 -0.264592,0.264574 z"/><path d="m 4.2025617,5.7859647 c 0.3522288,-0.032045 0.3992291,0.4967641 0.04687,0.527343 -0.266779,0.02409 -0.541897,0.03711 -0.818359,0.03711 -0.696073,0 -1.368579,-0.07581 -1.919922,-0.220702 -0.3419645,-0.063883 -0.2537875,-0.5757144 0.089845,-0.5214985 0.015234,0.00195 0.030264,0.00523 0.044925,0.00979 0.491834,0.1292523 1.128185,0.2031183 1.785157,0.2031184 0.260919,-1.9e-6 0.521297,-0.012571 0.771484,-0.035161 z" style="line-height:normal;font-variant-ligatures:normal;font-variant-position:normal;font-variant-caps:normal;font-variant-numeric:normal;font-variant-alternates:normal;font-feature-settings:normal;text-indent:0;text-align:start;text-decoration-line:none;text-decoration-style:solid;text-decoration-color:#000;text-transform:none;text-orientation:mixed;white-space:normal;shape-padding:0;isolation:auto;mix-blend-mode:normal;solid-color:#000;solid-opacity:1" fill="#e4eff8" color="#000" enable-background="accumulate" font-family="sans-serif" font-weight="400" overflow="visible"/><path fill="#e4eff8" d="m 5.0194875,7.9373287 c 10e-8,0.1461203 0.118462,0.2645741 0.264592,0.264574 0.14613,10e-8 0.2645919,-0.1184537 0.264592,-0.264574 -1e-7,-0.1461203 -0.118462,-0.2645741 -0.264592,-0.264574 -0.14613,-10e-8 -0.2645919,0.1184537 -0.264592,0.264574 z"/><path style="line-height:normal;font-variant-ligatures:normal;font-variant-position:normal;font-variant-caps:normal;font-variant-numeric:normal;font-variant-alternates:normal;font-feature-settings:normal;text-indent:0;text-align:start;text-decoration-line:none;text-decoration-style:solid;text-decoration-color:#000;text-transform:none;text-orientation:mixed;white-space:normal;shape-padding:0;isolation:auto;mix-blend-mode:normal;solid-color:#000;solid-opacity:1" fill="#e4eff8" d="m 4.2025615,7.9026307 c 0.3522288,-0.032045 0.3992291,0.4967641 0.04687,0.527343 -0.266779,0.02409 -0.541897,0.03711 -0.818359,0.03711 -0.696073,0 -1.368579,-0.07581 -1.919922,-0.220702 C 1.169186,8.1824987 1.257363,7.6706673 1.6009955,7.7248832 c 0.015234,0.00195 0.030264,0.00523 0.044925,0.00979 0.491834,0.1292523 1.128185,0.2031183 1.785157,0.2031184 0.260919,-1.9e-6 0.521297,-0.012571 0.771484,-0.035161 z" color="#000" enable-background="accumulate" font-family="sans-serif" font-weight="400" overflow="visible"/><path fill="#e4eff8" d="m 5.0270744,10.053279 c 1e-7,0.146121 0.118462,0.264574 0.264592,0.264574 0.14613,0 0.2645919,-0.118453 0.264592,-0.264574 -1e-7,-0.1461199 -0.118462,-0.2645737 -0.264592,-0.2645736 -0.14613,-10e-8 -0.2645919,0.1184537 -0.264592,0.2645736 z"/><path d="m 3.4386594,10.583034 c -0.696073,0 -1.368579,-0.07581 -1.919922,-0.220702 -0.3419645,-0.06388 -0.2537875,-0.575714 0.089845,-0.5214981 0.015234,0.00195 0.030264,0.00523 0.044925,0.00979 0.491834,0.1292523 1.128185,0.2031181 1.785157,0.2031181 0.260919,-2e-6 0.521297,-0.01257 0.771484,-0.03516 0.3522288,-0.032045 0.3992291,0.496764 0.04687,0.527342 -0.266779,0.02409 -0.541897,0.03711 -0.818359,0.03711 z" style="line-height:normal;font-variant-ligatures:normal;font-variant-position:normal;font-variant-caps:normal;font-variant-numeric:normal;font-variant-alternates:normal;font-feature-settings:normal;text-indent:0;text-align:start;text-decoration-line:none;text-decoration-style:solid;text-decoration-color:#000;text-transform:none;text-orientation:mixed;white-space:normal;shape-padding:0;isolation:auto;mix-blend-mode:normal;solid-color:#000;solid-opacity:1" fill="#e4eff8" color="#000" enable-background="accumulate" font-family="sans-serif" font-weight="400" overflow="visible"/><path fill="#e4eff8" d="m 5.027075,12.170338 c 1e-7,0.14612 0.118462,0.264574 0.264592,0.264574 0.14613,0 0.2645919,-0.118454 0.264592,-0.264574 -1e-7,-0.146121 -0.118462,-0.264575 -0.264592,-0.264574 -0.14613,-10e-7 -0.2645919,0.118453 -0.264592,0.264574 z"/><path style="line-height:normal;font-variant-ligatures:normal;font-variant-position:normal;font-variant-caps:normal;font-variant-numeric:normal;font-variant-alternates:normal;font-feature-settings:normal;text-indent:0;text-align:start;text-decoration-line:none;text-decoration-style:solid;text-decoration-color:#000;text-transform:none;text-orientation:mixed;white-space:normal;shape-padding:0;isolation:auto;mix-blend-mode:normal;solid-color:#000;solid-opacity:1" fill="#e4eff8" d="m 1.608583,11.957892 c 0.015234,0.002 0.030264,0.0052 0.044925,0.0098 0.491834,0.129252 1.128185,0.203118 1.785157,0.203118 0.260919,-10e-7 0.521297,-0.01257 0.771484,-0.03516 0.3522288,-0.03205 0.3992291,0.496759 0.04687,0.527335 -0.266779,0.02409 -0.541897,0.03711 -0.818359,0.03711 -0.696073,-10e-7 -1.368579,-0.07581 -1.919922,-0.220704 -0.3419645,-0.06388 -0.2537875,-0.575715 0.089845,-0.521499 z" color="#000" enable-background="accumulate" font-family="sans-serif" font-weight="400" overflow="visible"/><path fill="#e4eff8" d="m 11.90625,5.8206627 c 0,0.1461203 -0.118462,0.2645741 -0.264592,0.264574 -0.14613,10e-8 -0.264592,-0.1184537 -0.264592,-0.264574 0,-0.1461203 0.118462,-0.2645741 0.264592,-0.264574 0.14613,-1e-7 0.264592,0.1184537 0.264592,0.264574 z"/><path d="m 12.723176,5.7859647 c -0.352229,-0.032045 -0.399229,0.4967641 -0.04687,0.527343 0.266779,0.02409 0.541897,0.03711 0.818359,0.03711 0.696073,0 1.368579,-0.07581 1.919922,-0.220702 0.341964,-0.063883 0.253787,-0.5757144 -0.08985,-0.5214985 -0.01523,0.00195 -0.03026,0.00523 -0.04492,0.00979 -0.491834,0.1292523 -1.128185,0.2031183 -1.785157,0.2031184 -0.260919,-1.9e-6 -0.521297,-0.012571 -0.771484,-0.035161 z" style="line-height:normal;font-variant-ligatures:normal;font-variant-position:normal;font-variant-caps:normal;font-variant-numeric:normal;font-variant-alternates:normal;font-feature-settings:normal;text-indent:0;text-align:start;text-decoration-line:none;text-decoration-style:solid;text-decoration-color:#000;text-transform:none;text-orientation:mixed;white-space:normal;shape-padding:0;isolation:auto;mix-blend-mode:normal;solid-color:#000;solid-opacity:1" fill="#e4eff8" color="#000" enable-background="accumulate" font-family="sans-serif" font-weight="400" overflow="visible"/><path fill="#e4eff8" d="m 11.90625,7.9373287 c 0,0.1461203 -0.118462,0.2645741 -0.264592,0.264574 -0.14613,10e-8 -0.264592,-0.1184537 -0.264592,-0.264574 0,-0.1461203 0.118462,-0.2645741 0.264592,-0.264574 0.14613,-10e-8 0.264592,0.1184537 0.264592,0.264574 z"/><path d="m 12.723176,7.9026307 c -0.352229,-0.032045 -0.399229,0.4967641 -0.04687,0.527343 0.266779,0.02409 0.541897,0.03711 0.818359,0.03711 0.696073,0 1.368579,-0.07581 1.919922,-0.220702 0.341964,-0.063883 0.253787,-0.5757144 -0.08985,-0.5214985 -0.01523,0.00195 -0.03026,0.00523 -0.04492,0.00979 -0.491834,0.1292523 -1.128185,0.2031183 -1.785157,0.2031184 -0.260919,-1.9e-6 -0.521297,-0.012571 -0.771484,-0.035161 z" style="line-height:normal;font-variant-ligatures:normal;font-variant-position:normal;font-variant-caps:normal;font-variant-numeric:normal;font-variant-alternates:normal;font-feature-settings:normal;text-indent:0;text-align:start;text-decoration-line:none;text-decoration-style:solid;text-decoration-color:#000;text-transform:none;text-orientation:mixed;white-space:normal;shape-padding:0;isolation:auto;mix-blend-mode:normal;solid-color:#000;solid-opacity:1" fill="#e4eff8" color="#000" enable-background="accumulate" font-family="sans-serif" font-weight="400" overflow="visible"/><g transform="translate(0 4.233)"><path fill="#e4eff8" d="m 11.90625,5.8206627 c 0,0.1461203 -0.118462,0.2645741 -0.264592,0.264574 -0.14613,10e-8 -0.264592,-0.1184537 -0.264592,-0.264574 0,-0.1461203 0.118462,-0.2645741 0.264592,-0.264574 0.14613,-1e-7 0.264592,0.1184537 0.264592,0.264574 z"/><path d="m 12.723176,5.7859647 c -0.352229,-0.032045 -0.399229,0.4967641 -0.04687,0.527343 0.266779,0.02409 0.541897,0.03711 0.818359,0.03711 0.696073,0 1.368579,-0.07581 1.919922,-0.220702 0.341964,-0.063883 0.253787,-0.5757144 -0.08985,-0.5214985 -0.01523,0.00195 -0.03026,0.00523 -0.04492,0.00979 -0.491834,0.1292523 -1.128185,0.2031183 -1.785157,0.2031184 -0.260919,-1.9e-6 -0.521297,-0.012571 -0.771484,-0.035161 z" style="line-height:normal;font-variant-ligatures:normal;font-variant-position:normal;font-variant-caps:normal;font-variant-numeric:normal;font-variant-alternates:normal;font-feature-settings:normal;text-indent:0;text-align:start;text-decoration-line:none;text-decoration-style:solid;text-decoration-color:#000;text-transform:none;text-orientation:mixed;white-space:normal;shape-padding:0;isolation:auto;mix-blend-mode:normal;solid-color:#000;solid-opacity:1" fill="#e4eff8" color="#000" enable-background="accumulate" font-family="sans-serif" font-weight="400" overflow="visible"/></g><g transform="translate(0 6.35)"><path fill="#e4eff8" d="m 11.90625,5.8206627 c 0,0.1461203 -0.118462,0.2645741 -0.264592,0.264574 -0.14613,10e-8 -0.264592,-0.1184537 -0.264592,-0.264574 0,-0.1461203 0.118462,-0.2645741 0.264592,-0.264574 0.14613,-1e-7 0.264592,0.1184537 0.264592,0.264574 z"/><path style="line-height:normal;font-variant-ligatures:normal;font-variant-position:normal;font-variant-caps:normal;font-variant-numeric:normal;font-variant-alternates:normal;font-feature-settings:normal;text-indent:0;text-align:start;text-decoration-line:none;text-decoration-style:solid;text-decoration-color:#000;text-transform:none;text-orientation:mixed;white-space:normal;shape-padding:0;isolation:auto;mix-blend-mode:normal;solid-color:#000;solid-opacity:1" fill="#e4eff8" d="m 12.723176,5.7859647 c -0.352229,-0.032045 -0.399229,0.4967641 -0.04687,0.527343 0.266779,0.02409 0.541897,0.03711 0.818359,0.03711 0.696073,0 1.368579,-0.07581 1.919922,-0.220702 0.341964,-0.063883 0.253787,-0.5757144 -0.08985,-0.5214985 -0.01523,0.00195 -0.03026,0.00523 -0.04492,0.00979 -0.491834,0.1292523 -1.128185,0.2031183 -1.785157,0.2031184 -0.260919,-1.9e-6 -0.521297,-0.012571 -0.771484,-0.035161 z" color="#000" enable-background="accumulate" font-family="sans-serif" font-weight="400" overflow="visible"/></g><g fill="#549ad4" transform="translate(-5.027 2.91)"><path d="m 11.90625,5.8206627 c 0,0.1461203 -0.118462,0.2645741 -0.264592,0.264574 -0.14613,10e-8 -0.264592,-0.1184537 -0.264592,-0.264574 0,-0.1461203 0.118462,-0.2645741 0.264592,-0.264574 0.14613,-1e-7 0.264592,0.1184537 0.264592,0.264574 z"/><path style="line-height:normal;font-variant-ligatures:normal;font-variant-position:normal;font-variant-caps:normal;font-variant-numeric:normal;font-variant-alternates:normal;font-feature-settings:normal;text-indent:0;text-align:start;text-decoration-line:none;text-decoration-style:solid;text-decoration-color:#000;text-transform:none;text-orientation:mixed;white-space:normal;shape-padding:0;isolation:auto;mix-blend-mode:normal;solid-color:#000;solid-opacity:1" d="m 12.723176,5.7859647 c -0.352229,-0.032045 -0.399229,0.4967641 -0.04687,0.527343 0.266779,0.02409 0.541897,0.03711 0.818359,0.03711 0.696073,0 1.368579,-0.07581 1.919922,-0.220702 0.341964,-0.063883 0.253787,-0.5757144 -0.08985,-0.5214985 -0.01523,0.00195 -0.03026,0.00523 -0.04492,0.00979 -0.491834,0.1292523 -1.128185,0.2031183 -1.785157,0.2031184 -0.260919,-1.9e-6 -0.521297,-0.012571 -0.771484,-0.035161 z" color="#000" enable-background="accumulate" font-family="sans-serif" font-weight="400" overflow="visible"/></g><path fill="#549ad4" d="m 6.8791471,10.847457 c 0,0.14612 -0.118462,0.264574 -0.264592,0.264574 -0.14613,0 -0.264592,-0.118454 -0.264592,-0.264574 0,-0.146121 0.118462,-0.264574 0.264592,-0.264574 0.14613,0 0.264592,0.118453 0.264592,0.264574 z"/><path style="line-height:normal;font-variant-ligatures:normal;font-variant-position:normal;font-variant-caps:normal;font-variant-numeric:normal;font-variant-alternates:normal;font-feature-settings:normal;text-indent:0;text-align:start;text-decoration-line:none;text-decoration-style:solid;text-decoration-color:#000;text-transform:none;text-orientation:mixed;white-space:normal;shape-padding:0;isolation:auto;mix-blend-mode:normal;solid-color:#000;solid-opacity:1" fill="#549ad4" d="m 10.297634,10.635011 c -0.01523,0.002 -0.03026,0.0052 -0.04492,0.0098 -0.4918339,0.129253 -1.1281849,0.203119 -1.7851569,0.203119 -0.260919,-2e-6 -0.521297,-0.01257 -0.771484,-0.03517 -0.352229,-0.03205 -0.399229,0.496759 -0.04687,0.52734 0.266779,0.02409 0.541897,0.03711 0.818359,0.03711 0.696073,1e-6 1.368579,-0.07581 1.9199219,-0.220701 0.341964,-0.06388 0.253787,-0.575714 -0.08985,-0.521498 z" color="#000" enable-background="accumulate" font-family="sans-serif" font-weight="400" overflow="visible"/><g fill="#549ad4" transform="translate(-5.027 7.143)"><path d="m 11.90625,5.8206627 c 0,0.1461203 -0.118462,0.2645741 -0.264592,0.264574 -0.14613,10e-8 -0.264592,-0.1184537 -0.264592,-0.264574 0,-0.1461203 0.118462,-0.2645741 0.264592,-0.264574 0.14613,-1e-7 0.264592,0.1184537 0.264592,0.264574 z"/><path style="line-height:normal;font-variant-ligatures:normal;font-variant-position:normal;font-variant-caps:normal;font-variant-numeric:normal;font-variant-alternates:normal;font-feature-settings:normal;text-indent:0;text-align:start;text-decoration-line:none;text-decoration-style:solid;text-decoration-color:#000;text-transform:none;text-orientation:mixed;white-space:normal;shape-padding:0;isolation:auto;mix-blend-mode:normal;solid-color:#000;solid-opacity:1" d="m 12.723176,5.7859647 c -0.352229,-0.032045 -0.399229,0.4967641 -0.04687,0.527343 0.266779,0.02409 0.541897,0.03711 0.818359,0.03711 0.696073,0 1.368579,-0.07581 1.919922,-0.220702 0.341964,-0.063883 0.253787,-0.5757144 -0.08985,-0.5214985 -0.01523,0.00195 -0.03026,0.00523 -0.04492,0.00979 -0.491834,0.1292523 -1.128185,0.2031183 -1.785157,0.2031184 -0.260919,-1.9e-6 -0.521297,-0.012571 -0.771484,-0.035161 z" color="#000" enable-background="accumulate" font-family="sans-serif" font-weight="400" overflow="visible"/></g><g fill="#549ad4" transform="translate(-5.027 9.26)"><path d="m 11.90625,5.8206627 c 0,0.1461203 -0.118462,0.2645741 -0.264592,0.264574 -0.14613,10e-8 -0.264592,-0.1184537 -0.264592,-0.264574 0,-0.1461203 0.118462,-0.2645741 0.264592,-0.264574 0.14613,-1e-7 0.264592,0.1184537 0.264592,0.264574 z"/><path d="m 12.723176,5.7859647 c -0.352229,-0.032045 -0.399229,0.4967641 -0.04687,0.527343 0.266779,0.02409 0.541897,0.03711 0.818359,0.03711 0.696073,0 1.368579,-0.07581 1.919922,-0.220702 0.341964,-0.063883 0.253787,-0.5757144 -0.08985,-0.5214985 -0.01523,0.00195 -0.03026,0.00523 -0.04492,0.00979 -0.491834,0.1292523 -1.128185,0.2031183 -1.785157,0.2031184 -0.260919,-1.9e-6 -0.521297,-0.012571 -0.771484,-0.035161 z" style="line-height:normal;font-variant-ligatures:normal;font-variant-position:normal;font-variant-caps:normal;font-variant-numeric:normal;font-variant-alternates:normal;font-feature-settings:normal;text-indent:0;text-align:start;text-decoration-line:none;text-decoration-style:solid;text-decoration-color:#000;text-transform:none;text-orientation:mixed;white-space:normal;shape-padding:0;isolation:auto;mix-blend-mode:normal;solid-color:#000;solid-opacity:1" color="#000" enable-background="accumulate" font-family="sans-serif" font-weight="400" overflow="visible"/></g></svg>