<svg xmlns="http://www.w3.org/2000/svg" width="64" height="64" viewBox="0 0 16.933 16.933"><path fill="#e4eff8" d="M 8.3152525,0.52917453 C 7.6438969,0.53037453 6.9808714,0.68344938 6.3723973,0.97759709 5.3023523,1.4974446 4.4652728,2.4228827 4.0334928,3.5633726 3.9845916,3.5510826 3.9713913,3.5387826 3.8827793,3.5264926 2.8115243,3.4635027 1.7722901,3.9672652 1.1339152,4.8797763 0.43329893,5.8812423 0.3336366,7.20576 0.87575924,8.3078794 1.4178818,9.4099983 2.5104873,10.103706 3.7037251,10.103706 H 13.806561 c 1.175507,0 2.204621,-0.8184485 2.508868,-1.9957184 C 16.619677,6.9307173 16.123375,5.6880005 15.105361,5.0786001 14.423305,4.6703145 13.621327,4.6162675 12.91611,4.8829843 12.807208,3.6251905 12.223384,2.4629586 11.291802,1.6494264 10.458003,0.92389514 9.4037779,0.52712853 8.3152525,0.52917453 Z"/><path fill="#c4dcf0" d="m 15.313806,5.2186319 c 0.483841,0.6502364 0.668856,1.5118896 0.454311,2.3420567 C 15.46388,8.737959 14.434746,9.5564082 13.259248,9.5564082 H 3.1564023 c -0.7063264,0 -1.376292,-0.2448518 -1.9187947,-0.6718313 0.5953739,0.7618122 1.4973649,1.2191301 2.4661175,1.2191301 H 13.806561 c 1.175507,0 2.204621,-0.8184475 2.508868,-1.9957184 0.282627,-1.0935844 -0.126183,-2.2429183 -1.001623,-2.8893567 z"/><path fill="#c4dcf0" d="M7.1261448 9.2598879H5.8218012C5.6025861 9.2603377 5.4789572 9.5118667 5.612507 9.6857013l.3214346.4180617h4.9140264l.475951-.6821281c.134137-.1745899.0088-.4270771-.211362-.42581H9.8102812L10.0542 5.8399484C10.086816 5.3836131 9.6965627 5.0275956 9.2609479 5.0275956h-1.587537c-.4355154 0-.8216239.3564225-.7932517.8113156zM8.3238127.52917453c-.073602.0021-.1472634.006-.2207451.01176 2.4171764.17789482 4.2904304 2.26300277 4.2903104 4.77550727 0 0 .531822-.4368765.528262-.4378285C12.708385 2.4400147 10.731329.52936453 8.3238127.52917453zM4.2419076 3.103063C4.1650568 3.2516722 4.0958316 3.4043876 4.0345228 3.5605706 4.6085862 3.7895153 5.0869573 4.2020929 5.3926544 4.7219794 5.2313007 4.0525281 4.8114109 3.4773847 4.2419076 3.103063z"/><path fill="#38668c" d="M 12.700095,14.816652 V 13.75832 c 0,-0.293158 0.236016,-0.529167 0.529183,-0.529167 h 0.529182 c 0.293167,0 0.529172,0.236009 0.529172,0.529167 v 2.116665 c 0,0.293158 -0.236005,0.529165 -0.529172,0.529165 H 2.6457001 c -0.2931668,0 -0.5291823,-0.236007 -0.5291823,-0.529165 V 13.75832 c 0,-0.293158 0.2360155,-0.529167 0.5291823,-0.529167 h 0.5291724 c 0.2931668,0 0.5291823,0.236009 0.5291823,0.529167 v 1.058332 z"/><path fill="#2c5170" d="M3.1748725 13.229169v1.587483h.5291823v-1.058316c0-.293158-.2360155-.529167-.5291823-.529167zM13.75846 13.229169v2.116665c0 .293158-.236016.529166-.529182.529166H2.1165178c0 .293159.2360155.529166.5291823.529166H13.75846c.293167 0 .529172-.236007.529172-.529166v-2.116664c0-.293158-.236005-.529167-.529172-.529167z"/><path fill="#549ad4" d="M 6.8600048,9.2598879 H 5.5556614 C 5.3364462,9.2603411 5.2128172,9.5118665 5.346367,9.6857013 l 2.6448614,3.4390627 c 0.1059231,0.137821 0.3136992,0.137821 0.4196223,0 L 11.057779,9.6857047 c 0.134137,-0.1745932 0.0088,-0.42708 -0.211361,-0.4258134 H 9.5441415 L 9.7880599,5.8399484 C 9.8206766,5.3836131 9.430423,5.0275956 8.9948082,5.0275956 h -1.587537 c -0.4355154,0 -0.821624,0.3564225 -0.7932517,0.8113156 z"/><path d="m 8.7313187,4.2332654 c 0,0.3528637 -0.5293123,0.3528637 -0.5293123,0 V 3.6908679 c 0,-0.3528636 0.5293123,-0.3528636 0.5293123,0 z" style="line-height:normal;font-variant-ligatures:normal;font-variant-position:normal;font-variant-caps:normal;font-variant-numeric:normal;font-variant-alternates:normal;font-feature-settings:normal;text-indent:0;text-align:start;text-decoration-line:none;text-decoration-style:solid;text-decoration-color:#000;text-transform:none;text-orientation:mixed;white-space:normal;shape-padding:0;isolation:auto;mix-blend-mode:normal;solid-color:#000;solid-opacity:1" fill="#c4dcf0" color="#000" enable-background="accumulate" font-family="sans-serif" font-weight="400" overflow="visible"/><path style="line-height:normal;font-variant-ligatures:normal;font-variant-position:normal;font-variant-caps:normal;font-variant-numeric:normal;font-variant-alternates:normal;font-feature-settings:normal;text-indent:0;text-align:start;text-decoration-line:none;text-decoration-style:solid;text-decoration-color:#000;text-transform:none;text-orientation:mixed;white-space:normal;shape-padding:0;isolation:auto;mix-blend-mode:normal;solid-color:#000;solid-opacity:1" fill="#549ad4" d="m 8.4667292,4.2332654 c 0,0.3528637 -0.5293124,0.3528637 -0.5293124,0 V 3.6908679 c 0,-0.3528636 0.5293124,-0.3528636 0.5293124,0 z" color="#000" enable-background="accumulate" font-family="sans-serif" font-weight="400" overflow="visible"/><path style="line-height:normal;font-variant-ligatures:normal;font-variant-position:normal;font-variant-caps:normal;font-variant-numeric:normal;font-variant-alternates:normal;font-feature-settings:normal;text-indent:0;text-align:start;text-decoration-line:none;text-decoration-style:solid;text-decoration-color:#000;text-transform:none;text-orientation:mixed;white-space:normal;shape-padding:0;isolation:auto;mix-blend-mode:normal;solid-color:#000;solid-opacity:1" fill="#c4dcf0" d="m 10.0542,3.7173949 c 0,0.3528637 -0.5293128,0.3528637 -0.5293128,0 V 3.1749974 c 0,-0.3528636 0.5293128,-0.3528636 0.5293128,0 z" color="#000" enable-background="accumulate" font-family="sans-serif" font-weight="400" overflow="visible"/><path d="m 9.78961,3.7173949 c 0,0.3528637 -0.5293123,0.3528637 -0.5293123,0 V 3.1749974 c 0,-0.3528636 0.5293123,-0.3528636 0.5293123,0 z" style="line-height:normal;font-variant-ligatures:normal;font-variant-position:normal;font-variant-caps:normal;font-variant-numeric:normal;font-variant-alternates:normal;font-feature-settings:normal;text-indent:0;text-align:start;text-decoration-line:none;text-decoration-style:solid;text-decoration-color:#000;text-transform:none;text-orientation:mixed;white-space:normal;shape-padding:0;isolation:auto;mix-blend-mode:normal;solid-color:#000;solid-opacity:1" fill="#549ad4" color="#000" enable-background="accumulate" font-family="sans-serif" font-weight="400" overflow="visible"/><path d="m 7.4083079,3.7173949 c 0,0.3528637 -0.5293123,0.3528637 -0.5293123,0 V 3.1749974 c 0,-0.3528636 0.5293123,-0.3528636 0.5293123,0 z" style="line-height:normal;font-variant-ligatures:normal;font-variant-position:normal;font-variant-caps:normal;font-variant-numeric:normal;font-variant-alternates:normal;font-feature-settings:normal;text-indent:0;text-align:start;text-decoration-line:none;text-decoration-style:solid;text-decoration-color:#000;text-transform:none;text-orientation:mixed;white-space:normal;shape-padding:0;isolation:auto;mix-blend-mode:normal;solid-color:#000;solid-opacity:1" fill="#c4dcf0" color="#000" enable-background="accumulate" font-family="sans-serif" font-weight="400" overflow="visible"/><path style="line-height:normal;font-variant-ligatures:normal;font-variant-position:normal;font-variant-caps:normal;font-variant-numeric:normal;font-variant-alternates:normal;font-feature-settings:normal;text-indent:0;text-align:start;text-decoration-line:none;text-decoration-style:solid;text-decoration-color:#000;text-transform:none;text-orientation:mixed;white-space:normal;shape-padding:0;isolation:auto;mix-blend-mode:normal;solid-color:#000;solid-opacity:1" fill="#549ad4" d="m 7.1437183,3.7173949 c 0,0.3528637 -0.5293123,0.3528637 -0.5293123,0 V 3.1749974 c 0,-0.3528636 0.5293123,-0.3528636 0.5293123,0 z" color="#000" enable-background="accumulate" font-family="sans-serif" font-weight="400" overflow="visible"/><path fill="#3588cb" d="M8.4656291 5.0275956c.4356149 0 .8258683.3560175.7932518.8123528L9.0149624 9.2598913H9.5441415L9.7880599 5.8399484C9.8206766 5.3836131 9.430423 5.0275956 8.9948082 5.0275956zM10.325507 9.2598913c.21637.00547.33502.2542336.203094.4258134l-2.5921508 3.3677503.054778.07131c.1059232.137821.3136992.137821.4196223 0L11.057779 9.6857047c.134138-.1745934.0088-.4270805-.211361-.4258134z"/></svg>