<svg xmlns="http://www.w3.org/2000/svg" width="64" height="64" viewBox="0 0 16.933 16.933"><path fill="#549ad4" d="M5.7009465 2.1909254c-1.5158.69839-2.72175 1.95209-3.35742 3.50159-.0558.13543.009.29039.1447.34572.13528.0558.29018-.009.34571-.14418.5845-1.42476 1.69579-2.58081 3.08974-3.22306.13277-.0613.19064-.21869.12919-.3514-.0449-.0973-.14408-.1579-.25115-.153475-.0349.00201-.0692.010005-.10077.024805zM10.880997 2.3196054c-.0615.13257-.004.28991.12867.3514 1.39395.64225 2.50524 1.7983 3.08973 3.22306.0555.1354.21044.2.34572.14418.13479-.0561.19862-.21086.14263-.34572-.63568-1.5495-1.83955-2.8032-3.35535-3.50159-.0315-.0148-.0655-.0232-.10026-.024805-.10707-.00401-.20624.056195-.25114.153475zM14.023416 10.875435c-.0669.0215-.122479.0687-.15451.13126-.61887 1.19004-1.61969 2.14945-2.83962 2.71663-.13258.0615-.1902.21883-.12868.3514.0613.13278.21869.19065.3514.12919 1.32656-.61676 2.413271-1.65945 3.08612-2.9533.0681-.12956.0181-.2898-.11162-.35761-.0372-.0194-.0785-.0297-.1204-.02998-.02799-.000245-.05599.004-.08269.01241zM2.7068465 10.892935c-.1303.0673-.18105.22764-.11317.3576.67284 1.29386 1.76162 2.33655 3.08818 2.95331.13271.0614.2901.004.3514-.12919.0615-.13257.004-.28991-.12868-.3514-1.21993-.56718-2.22127-1.52659-2.84013-2.71663-.0491-.0954-.15094-.15178-.257885-.14261-.034815.003-.068715.01282-.099715.02892z" color="#000"/><path fill="#e4eff8" d="M 5.8208332,7.9374998 H 11.1125 V 8.9958332 H 5.8208332 Z"/><path fill="#38668c" d="m 5.5562497,6.0854172 h 5.8208343 c 0.146579,0 0.264582,0.118004 0.264582,0.264583 v 1.5875 c 0,0.146579 -0.118003,0.264583 -0.264582,0.264583 H 5.5562497 c -0.146579,0 -0.2645831,-0.118004 -0.2645831,-0.264583 v -1.5875 c 0,-0.146579 0.1180041,-0.264583 0.2645831,-0.264583 z"/><path d="m 8.2020833,6.8783862 c -0.3528645,0 -0.3528645,0.529297 0,0.529297 H 10.31875 c 0.352864,0 0.352864,-0.529297 0,-0.529297 z" style="line-height:normal;font-variant-ligatures:normal;font-variant-position:normal;font-variant-caps:normal;font-variant-numeric:normal;font-variant-alternates:normal;font-feature-settings:normal;text-indent:0;text-align:start;text-decoration-line:none;text-decoration-style:solid;text-decoration-color:#000;text-transform:none;text-orientation:mixed;white-space:normal;shape-padding:0;isolation:auto;mix-blend-mode:normal;solid-color:#000;solid-opacity:1" fill="#e4eff8" color="#000" enable-background="accumulate" font-family="sans-serif" font-weight="400" overflow="visible"/><path fill="#549ad4" d="M 7.4083333,8.2020832 H 5.5562497 c -0.146579,0 -0.2645831,-0.118004 -0.2645831,-0.264583 v -1.5875 c 0,-0.146579 0.1180041,-0.264583 0.2645831,-0.264583 h 1.8520836 z"/><path fill="#e4eff8" d="m 6.6145832,7.1437526 c 0,0.1461253 -0.118458,0.2645833 -0.2645833,0.2645833 -0.1461253,0 -0.2645833,-0.118458 -0.2645833,-0.2645833 0,-0.1461253 0.118458,-0.2645833 0.2645833,-0.2645833 0.1461253,0 0.2645833,0.118458 0.2645833,0.2645833 z"/><path fill="#c4dcf0" d="m 10.583333,7.9374999 v 0.2645833 c 0,0.1465789 -0.118004,0.2645834 -0.264583,0.2645834 H 5.8208333 V 8.9958332 H 11.1125 V 7.9374999 Z"/><path fill="#2c5170" d="m 11.1125,6.085417 v 1.3229167 c 0,0.1465789 -0.118005,0.2645833 -0.264583,0.2645833 H 5.2916667 v 0.2645834 c 0,0.1465789 0.1180043,0.2645833 0.2645833,0.2645833 h 5.820833 c 0.146579,0 0.264584,-0.1180044 0.264584,-0.2645833 v -1.5875 c 0,-0.1465789 -0.118005,-0.2645834 -0.264584,-0.2645834 z"/><path fill="#3588cb" d="m 5.2916667,7.672917 v 0.2645834 c 0,0.1465789 0.1180043,0.2645833 0.2645833,0.2645833 H 7.4083333 V 7.672917 Z"/><path fill="#38668c" d="m 5.5562497,8.7312498 h 5.8208343 c 0.146579,0 0.264582,0.118004 0.264582,0.264583 v 1.5875002 c 0,0.146579 -0.118003,0.264583 -0.264582,0.264583 H 5.5562497 c -0.146579,0 -0.2645831,-0.118004 -0.2645831,-0.264583 V 8.9958328 c 0,-0.146579 0.1180041,-0.264583 0.2645831,-0.264583 z"/><path style="line-height:normal;font-variant-ligatures:normal;font-variant-position:normal;font-variant-caps:normal;font-variant-numeric:normal;font-variant-alternates:normal;font-feature-settings:normal;text-indent:0;text-align:start;text-decoration-line:none;text-decoration-style:solid;text-decoration-color:#000;text-transform:none;text-orientation:mixed;white-space:normal;shape-padding:0;isolation:auto;mix-blend-mode:normal;solid-color:#000;solid-opacity:1" fill="#e4eff8" d="m 8.2020833,9.5242187 c -0.3528645,0 -0.3528645,0.5292973 0,0.5292973 H 10.31875 c 0.352864,0 0.352864,-0.5292973 0,-0.5292973 z" color="#000" enable-background="accumulate" font-family="sans-serif" font-weight="400" overflow="visible"/><path fill="#549ad4" d="M 7.4083333,10.847916 H 5.5562497 c -0.146579,0 -0.2645831,-0.118004 -0.2645831,-0.264583 V 8.9958328 c 0,-0.146579 0.1180041,-0.264583 0.2645831,-0.264583 h 1.8520836 z"/><path fill="#e4eff8" d="m 6.6145832,9.7895851 c -2e-7,0.1461252 -0.1184581,0.2645829 -0.2645833,0.2645829 -0.1461252,0 -0.2645831,-0.1184577 -0.2645833,-0.2645829 0,-0.1461253 0.118458,-0.2645833 0.2645833,-0.2645833 0.1461253,0 0.2645833,0.118458 0.2645833,0.2645833 z"/><path fill="#2c5170" d="m 11.1125,8.7312488 v 1.3229172 c 0,0.146579 -0.118005,0.264583 -0.264583,0.264583 H 5.2916667 v 0.264584 c 0,0.146579 0.1180043,0.264583 0.2645833,0.264583 h 5.820833 c 0.146579,0 0.264583,-0.118004 0.264583,-0.264583 V 8.9958328 c 0,-0.146579 -0.118004,-0.264584 -0.264583,-0.264584 z"/><path fill="#3588cb" d="m 5.2916667,10.318749 v 0.264584 c 0,0.146579 0.1180043,0.264583 0.2645833,0.264583 h 1.8520833 v -0.529167 z"/><path d="M 14.816406,10.054166 V 8.9958332 c 0,-0.3528646 -0.529297,-0.3528646 -0.529297,0 v 1.0583328 z" style="line-height:normal;font-variant-ligatures:normal;font-variant-position:normal;font-variant-caps:normal;font-variant-numeric:normal;font-variant-alternates:normal;font-feature-settings:normal;text-indent:0;text-align:start;text-decoration-line:none;text-decoration-style:solid;text-decoration-color:#000;text-transform:none;text-orientation:mixed;white-space:normal;shape-padding:0;isolation:auto;mix-blend-mode:normal;solid-color:#000;solid-opacity:1" fill="#c4dcf0" color="#000" enable-background="accumulate" font-family="sans-serif" font-weight="400" overflow="visible"/><path fill="#e4eff8" d="m 12.964583,6.614583 h 3.175 c 0.146579,0 0.264583,0.1180041 0.264583,0.2645833 v 2.1166669 c 0,0.1465792 -0.118004,0.2645833 -0.264583,0.2645833 h -3.175 C 12.818004,9.2604165 12.7,9.1424124 12.7,8.9958332 V 6.8791663 c 0,-0.1465792 0.118004,-0.2645833 0.264583,-0.2645833 z"/><path style="line-height:normal;font-variant-ligatures:normal;font-variant-position:normal;font-variant-caps:normal;font-variant-numeric:normal;font-variant-alternates:normal;font-feature-settings:normal;text-indent:0;text-align:start;text-decoration-line:none;text-decoration-style:solid;text-decoration-color:#000;text-transform:none;text-orientation:mixed;white-space:normal;shape-padding:0;isolation:auto;mix-blend-mode:normal;solid-color:#000;solid-opacity:1" fill="#38668c" d="m 13.757812,9.7851562 c -0.352864,0 -0.352864,0.5292968 0,0.5292968 h 1.587891 c 0.352864,0 0.352864,-0.5292968 0,-0.5292968 z" color="#000" enable-background="accumulate" font-family="sans-serif" font-weight="400" overflow="visible"/><path fill="#c4dcf0" d="M 15.800586,6.6145832 C 15.389636,8.230599 13.402426,8.6147261 12.7,8.7017944 v 0.2940388 c 0,0.1465792 0.118004,0.2645834 0.264583,0.2645834 h 3.175 c 0.146579,0 0.264583,-0.1180042 0.264583,-0.2645834 V 6.8791666 c 0,-0.1465792 -0.118004,-0.2645834 -0.264583,-0.2645834 z"/><path fill="#549ad4" d="m 16.404166,8.7312498 v 0.2645834 c 0,0.1465792 -0.118004,0.2645833 -0.264583,0.2645833 h -3.175 C 12.818004,9.2604165 12.7,9.1424124 12.7,8.9958332 V 8.7312498 Z"/><path style="line-height:normal;font-variant-ligatures:normal;font-variant-position:normal;font-variant-caps:normal;font-variant-numeric:normal;font-variant-alternates:normal;font-feature-settings:normal;text-indent:0;text-align:start;text-decoration-line:none;text-decoration-style:solid;text-decoration-color:#000;text-transform:none;text-orientation:mixed;white-space:normal;shape-padding:0;isolation:auto;mix-blend-mode:normal;solid-color:#000;solid-opacity:1" fill="#c4dcf0" d="m 8.7312497,16.143879 v -1.058332 c 0,-0.352865 -0.529297,-0.352865 -0.529297,0 v 1.058332 z" color="#000" enable-background="accumulate" font-family="sans-serif" font-weight="400" overflow="visible"/><path fill="#e4eff8" d="m 6.8794266,12.704296 h 3.1750004 c 0.146579,0 0.264583,0.118004 0.264583,0.264583 v 2.116667 c 0,0.146579 -0.118004,0.264584 -0.264583,0.264584 H 6.8794266 c -0.1465791,0 -0.2645832,-0.118005 -0.2645832,-0.264584 v -2.116667 c 0,-0.146579 0.1180041,-0.264583 0.2645832,-0.264583 z"/><path d="m 7.6726557,15.874869 c -0.3528645,0 -0.3528645,0.529297 0,0.529297 h 1.587891 c 0.3528645,0 0.3528645,-0.529297 0,-0.529297 z" style="line-height:normal;font-variant-ligatures:normal;font-variant-position:normal;font-variant-caps:normal;font-variant-numeric:normal;font-variant-alternates:normal;font-feature-settings:normal;text-indent:0;text-align:start;text-decoration-line:none;text-decoration-style:solid;text-decoration-color:#000;text-transform:none;text-orientation:mixed;white-space:normal;shape-padding:0;isolation:auto;mix-blend-mode:normal;solid-color:#000;solid-opacity:1" fill="#38668c" color="#000" enable-background="accumulate" font-family="sans-serif" font-weight="400" overflow="visible"/><path fill="#c4dcf0" d="m 9.7154294,12.704297 c -0.4109497,1.616015 -2.3981597,2.000142 -3.1005859,2.087211 v 0.294039 c 0,0.146579 0.1180042,0.264583 0.2645834,0.264583 h 3.1750001 c 0.146579,0 0.264583,-0.118004 0.264583,-0.264583 V 12.96888 c 0,-0.146579 -0.118004,-0.264583 -0.264583,-0.264583 z"/><path fill="#549ad4" d="m 10.31901,14.820963 v 0.264584 c 0,0.146579 -0.118004,0.264583 -0.264583,0.264583 H 6.8794267 c -0.146579,0 -0.264583,-0.118004 -0.264583,-0.264583 v -0.264584 z"/><path d="M 2.645573,10.056315 V 8.9979817 c 0,-0.3528646 -0.529297,-0.3528646 -0.529297,0 v 1.0583333 z" style="line-height:normal;font-variant-ligatures:normal;font-variant-position:normal;font-variant-caps:normal;font-variant-numeric:normal;font-variant-alternates:normal;font-feature-settings:normal;text-indent:0;text-align:start;text-decoration-line:none;text-decoration-style:solid;text-decoration-color:#000;text-transform:none;text-orientation:mixed;white-space:normal;shape-padding:0;isolation:auto;mix-blend-mode:normal;solid-color:#000;solid-opacity:1" fill="#c4dcf0" color="#000" enable-background="accumulate" font-family="sans-serif" font-weight="400" overflow="visible"/><path fill="#e4eff8" d="M 0.79375008,6.6167316 H 3.9687502 c 0.1465791,0 0.2645833,0.1180042 0.2645833,0.2645833 v 2.116667 c 0,0.1465791 -0.1180042,0.2645832 -0.2645833,0.2645832 H 0.79375008 c -0.14657913,0 -0.26458326,-0.1180041 -0.26458326,-0.2645832 v -2.116667 c 0,-0.1465791 0.11800413,-0.2645833 0.26458326,-0.2645833 z"/><path style="line-height:normal;font-variant-ligatures:normal;font-variant-position:normal;font-variant-caps:normal;font-variant-numeric:normal;font-variant-alternates:normal;font-feature-settings:normal;text-indent:0;text-align:start;text-decoration-line:none;text-decoration-style:solid;text-decoration-color:#000;text-transform:none;text-orientation:mixed;white-space:normal;shape-padding:0;isolation:auto;mix-blend-mode:normal;solid-color:#000;solid-opacity:1" fill="#38668c" d="m 1.586979,9.7873047 c -0.3528647,0 -0.3528647,0.5292973 0,0.5292973 H 3.17487 c 0.3528647,0 0.3528647,-0.5292973 0,-0.5292973 z" color="#000" enable-background="accumulate" font-family="sans-serif" font-weight="400" overflow="visible"/><path fill="#c4dcf0" d="M 3.6297527,6.6167318 C 3.218803,8.2327475 1.231593,8.6168746 0.52916684,8.7039429 v 0.2940388 c 0,0.1465792 0.11800417,0.2645834 0.26458333,0.2645834 H 3.9687501 c 0.1465792,0 0.2645834,-0.1180042 0.2645834,-0.2645834 V 6.8813151 c 0,-0.1465792 -0.1180042,-0.2645833 -0.2645834,-0.2645833 z"/><path fill="#549ad4" d="m 4.233333,8.7333983 v 0.2645834 c 0,0.1465792 -0.118004,0.2645833 -0.264583,0.2645833 h -3.175 c -0.146579,0 -0.264583,-0.1180041 -0.264583,-0.2645833 V 8.7333983 Z"/><path style="line-height:normal;font-variant-ligatures:normal;font-variant-position:normal;font-variant-caps:normal;font-variant-numeric:normal;font-variant-alternates:normal;font-feature-settings:normal;text-indent:0;text-align:start;text-decoration-line:none;text-decoration-style:solid;text-decoration-color:#000;text-transform:none;text-orientation:mixed;white-space:normal;shape-padding:0;isolation:auto;mix-blend-mode:normal;solid-color:#000;solid-opacity:1" fill="#c4dcf0" d="M 8.7309889,3.9687496 V 2.9104168 c 0,-0.3528646 -0.529297,-0.3528646 -0.529297,0 v 1.0583328 z" color="#000" enable-background="accumulate" font-family="sans-serif" font-weight="400" overflow="visible"/><path fill="#e4eff8" d="m 6.8791658,0.52916664 h 3.1750002 c 0.146579,0 0.264583,0.11800413 0.264583,0.26458326 v 2.116667 c 0,0.1465791 -0.118004,0.2645832 -0.264583,0.2645832 H 6.8791658 c -0.1465791,0 -0.2645833,-0.1180041 -0.2645833,-0.2645832 v -2.116667 c 0,-0.14657913 0.1180042,-0.26458326 0.2645833,-0.26458326 z"/><path d="m 7.6723949,3.6997398 c -0.3528644,0 -0.3528644,0.5292968 0,0.5292968 h 1.587891 c 0.3528644,0 0.3528644,-0.5292968 0,-0.5292968 z" style="line-height:normal;font-variant-ligatures:normal;font-variant-position:normal;font-variant-caps:normal;font-variant-numeric:normal;font-variant-alternates:normal;font-feature-settings:normal;text-indent:0;text-align:start;text-decoration-line:none;text-decoration-style:solid;text-decoration-color:#000;text-transform:none;text-orientation:mixed;white-space:normal;shape-padding:0;isolation:auto;mix-blend-mode:normal;solid-color:#000;solid-opacity:1" fill="#38668c" color="#000" enable-background="accumulate" font-family="sans-serif" font-weight="400" overflow="visible"/><path fill="#c4dcf0" d="M 9.7151686,0.52916685 C 9.3042189,2.1451826 7.3170089,2.5293097 6.6145827,2.616378 v 0.2940388 c 0,0.1465792 0.1180042,0.2645834 0.2645834,0.2645834 h 3.1749999 c 0.146579,0 0.264583,-0.1180042 0.264583,-0.2645834 V 0.79375018 c 0,-0.14657916 -0.118004,-0.26458333 -0.264583,-0.26458333 z"/><path fill="#549ad4" d="m 10.318749,2.6458334 v 0.2645834 c 0,0.1465792 -0.118004,0.2645833 -0.264583,0.2645833 H 6.8791659 c -0.146579,0 -0.264583,-0.1180041 -0.264583,-0.2645833 V 2.6458334 Z"/></svg>