<svg xmlns="http://www.w3.org/2000/svg" width="64" height="64" viewBox="0 0 16.933 16.933"><path fill="#549ad4" d="M 2.11627,12.773373 C 1.2543697,11.502497 0.7936209,10.002244 0.79362,8.466666 c -1.1e-7,-4.2376363 3.4352837,-7.67291877 7.67292,-7.672917 4.237632,3.76e-6 7.67291,3.4352846 7.67291,7.672917 v 0 c 3e-6,1.536707 -0.46142,3.038011 -1.3245,4.309451 z"/><path fill="#3588cb" d="m 2.91096,7.937499 h 11.64118 c 0.43974,0 0.79375,0.354011 0.79375,0.793748 v 2.116669 c 0,0.439737 -0.35401,0.793748 -0.79375,0.793748 H 2.91096 c -0.43974,0 -0.79375,-0.354011 -0.79375,-0.793748 V 8.731247 c 0,-0.439737 0.35401,-0.793748 0.79375,-0.793748 z"/><path d="m 8.46641,0.792968 v 7.9375 H 8.9957 v -7.9375 z" style="line-height:normal;font-variant-ligatures:normal;font-variant-position:normal;font-variant-caps:normal;font-variant-numeric:normal;font-variant-alternates:normal;font-feature-settings:normal;text-indent:0;text-align:start;text-decoration-line:none;text-decoration-style:solid;text-decoration-color:#000;text-transform:none;text-orientation:mixed;white-space:normal;shape-padding:0;isolation:auto;mix-blend-mode:normal;solid-color:#000;solid-opacity:1" fill="#3588cb" color="#000" enable-background="accumulate" font-family="sans-serif" font-weight="400" overflow="visible"/><path d="m 1.63659,4.879418 -0.0977,0.519531 c 4.57936,0.851035 9.27926,0.978062 13.86133,-0.002 L 15.29085,4.879371 c -4.50049,0.962566 -9.12956,0.840884 -13.6543,0 z" style="line-height:normal;font-variant-ligatures:normal;font-variant-position:normal;font-variant-caps:normal;font-variant-numeric:normal;font-variant-alternates:normal;font-feature-settings:normal;text-indent:0;text-align:start;text-decoration-line:none;text-decoration-style:solid;text-decoration-color:#000;text-transform:none;text-orientation:mixed;white-space:normal;shape-padding:0;isolation:auto;mix-blend-mode:normal;solid-color:#000;solid-opacity:1" fill="#3588cb" color="#000" enable-background="accumulate" font-family="sans-serif" font-weight="400" overflow="visible"/><path d="m 8.74972,0.983402 c 2.019,1.790251 3.40278,4.61394 3.68763,7.789705 l 0.5271,-0.04703 C 12.66851,5.426586 11.23651,2.481007 9.10112,0.587558 Z" style="line-height:normal;font-variant-ligatures:normal;font-variant-position:normal;font-variant-caps:normal;font-variant-numeric:normal;font-variant-alternates:normal;font-feature-settings:normal;text-indent:0;text-align:start;text-decoration-line:none;text-decoration-style:solid;text-decoration-color:#000;text-transform:none;text-orientation:mixed;white-space:normal;shape-padding:0;isolation:auto;mix-blend-mode:normal;solid-color:#000;solid-opacity:1" fill="#3588cb" color="#000" enable-background="accumulate" font-family="sans-serif" font-weight="400" overflow="visible"/><path fill="#3588cb" d="m 8.15648,0.8046 c 4.147619,0.11848507 7.449633,3.5127554 7.45381,7.662064 -1.9e-5,1.536651 -0.46143,3.037898 -1.32447,4.309298 h 0.52917 c 0.863037,-1.271401 1.324444,-2.772648 1.32446,-4.309298 0,-4.237632 -3.435278,-7.67291224 -7.67291,-7.672915 C 8.3631241,0.795277 8.2597496,0.798894 8.15648,0.8046 Z"/><path d="M 8.36473,0.584459 C 6.22748,2.477795 4.79389,5.424857 4.49779,8.726081 l 0.5271,0.04703 c 0.28499,-3.177433 1.67,-6.002179 3.69073,-7.792289 z" style="line-height:normal;font-variant-ligatures:normal;font-variant-position:normal;font-variant-caps:normal;font-variant-numeric:normal;font-variant-alternates:normal;font-feature-settings:normal;text-indent:0;text-align:start;text-decoration-line:none;text-decoration-style:solid;text-decoration-color:#000;text-transform:none;text-orientation:mixed;white-space:normal;shape-padding:0;isolation:auto;mix-blend-mode:normal;solid-color:#000;solid-opacity:1" fill="#3588cb" color="#000" enable-background="accumulate" font-family="sans-serif" font-weight="400" overflow="visible"/><path style="line-height:normal;font-variant-ligatures:normal;font-variant-position:normal;font-variant-caps:normal;font-variant-numeric:normal;font-variant-alternates:normal;font-feature-settings:normal;text-indent:0;text-align:start;text-decoration-line:none;text-decoration-style:solid;text-decoration-color:#000;text-transform:none;text-orientation:mixed;white-space:normal;shape-padding:0;isolation:auto;mix-blend-mode:normal;solid-color:#000;solid-opacity:1" fill="#e4eff8" d="m 8.46667,0.529296 c -4.38063,-2e-6 -7.9375,3.556872 -7.9375,7.9375 0,1.588503 0.47558,3.1404 1.36718,4.455078 0.1979117,0.292999 0.6373717,-0.0039 0.43946,-0.296875 -0.8322,-1.227074 -1.27735,-2.6755509 -1.27735,-4.158203 0,-4.094645 3.31356,-7.408205 7.40821,-7.408203 4.09464,3e-6 7.4082,3.313562 7.4082,7.408203 0,1.4837423 -0.44596,2.932538 -1.2793,4.160156 -0.220045,0.295651 0.244055,0.610577 0.4375,0.296875 0.89283,-1.315261 1.3711,-2.86736 1.3711,-4.457031 0,-4.380624 -3.55688,-7.937496 -7.9375,-7.9375 z" color="#000" enable-background="accumulate" font-family="sans-serif" font-weight="400" overflow="visible"/><path style="line-height:normal;font-variant-ligatures:normal;font-variant-position:normal;font-variant-caps:normal;font-variant-numeric:normal;font-variant-alternates:normal;font-feature-settings:normal;text-indent:0;text-align:start;text-decoration-line:none;text-decoration-style:solid;text-decoration-color:#000;text-transform:none;text-orientation:mixed;white-space:normal;shape-padding:0;isolation:auto;mix-blend-mode:normal;solid-color:#000;solid-opacity:1" fill="#e4eff8" d="m 8.83551,0.58756 -0.3514,0.395842 c 2.019,1.790251 3.40278,4.61394 3.68763,7.789705 l 0.5271,-0.04703 C 12.40289,5.426586 10.97089,2.481007 8.83551,0.587556 Z" color="#000" enable-background="accumulate" font-family="sans-serif" font-weight="400" overflow="visible"/><path style="line-height:normal;font-variant-ligatures:normal;font-variant-position:normal;font-variant-caps:normal;font-variant-numeric:normal;font-variant-alternates:normal;font-feature-settings:normal;text-indent:0;text-align:start;text-decoration-line:none;text-decoration-style:solid;text-decoration-color:#000;text-transform:none;text-orientation:mixed;white-space:normal;shape-padding:0;isolation:auto;mix-blend-mode:normal;solid-color:#000;solid-opacity:1" fill="#c4dcf0" d="M8.33424.532266c4.31948.07103 7.80521 3.598134 7.80521 7.9344.00001 1.589671-.47815 3.141831-1.37097 4.457092-.02308.03721-.05504.0681-.093.08992.1239.07168.282343.03184.3576-.08992.89283-1.315261 1.37098-2.867421 1.37098-4.457092 0-4.380624-3.55688-7.9375-7.93751-7.9375-.04441 0-.08811.0024-.13231.0031zM.79362 8.466666c0 1.4826518.44525 2.931328 1.27744 4.158402.085919.127295.046067.300732-.0868.377755.2429787.13772.5063028-.145353.3514-.377755C1.50347 11.397994 1.05874 9.9493178 1.05874 8.466666c0-4.05026 3.24231-7.333954 7.27552-7.404716-.0442-.000776-.0879-.0031-.1323-.0031C4.10731 1.058847.79362 4.372021.79362 8.466666z" color="#000" enable-background="accumulate" font-family="sans-serif" font-weight="400" overflow="visible"/><path fill="#c4dcf0" d="m 12.06735,7.937499 c 0.0423,0.275831 0.0791,0.553754 0.10439,0.835608 l 0.5271,-0.04703 C 12.67504,8.460503 12.64104,8.19812 12.60274,7.937495 Z"/><path style="line-height:normal;font-variant-ligatures:normal;font-variant-position:normal;font-variant-caps:normal;font-variant-numeric:normal;font-variant-alternates:normal;font-feature-settings:normal;text-indent:0;text-align:start;text-decoration-line:none;text-decoration-style:solid;text-decoration-color:#000;text-transform:none;text-orientation:mixed;white-space:normal;shape-padding:0;isolation:auto;mix-blend-mode:normal;solid-color:#000;solid-opacity:1" fill="#e4eff8" d="m 8.20104,0.792968 v 7.9375 h 0.5293 v -7.9375 z" color="#000" enable-background="accumulate" font-family="sans-serif" font-weight="400" overflow="visible"/><path style="line-height:normal;font-variant-ligatures:normal;font-variant-position:normal;font-variant-caps:normal;font-variant-numeric:normal;font-variant-alternates:normal;font-feature-settings:normal;text-indent:0;text-align:start;text-decoration-line:none;text-decoration-style:solid;text-decoration-color:#000;text-transform:none;text-orientation:mixed;white-space:normal;shape-padding:0;isolation:auto;mix-blend-mode:normal;solid-color:#000;solid-opacity:1" fill="#e4eff8" d="M1.53889 5.287108c4.57936.851036 9.27926.978063 13.86133-.002L15.29085 4.76753C10.79036 5.730097 6.16129 5.608415 1.63657 4.7675535zM14.81628 8.466796v.5292968h1.31836V8.466796z" color="#000" enable-background="accumulate" font-family="sans-serif" font-weight="400" overflow="visible"/><path fill="#c4dcf0" d="m 14.55162,8.466666 v 0.529683 h 0.79427 v -5.168e-4 c 0,-0.2046012 -0.0138,-0.4133574 -0.04483,-0.5291662 z"/><path style="line-height:normal;font-variant-ligatures:normal;font-variant-position:normal;font-variant-caps:normal;font-variant-numeric:normal;font-variant-alternates:normal;font-feature-settings:normal;text-indent:0;text-align:start;text-decoration-line:none;text-decoration-style:solid;text-decoration-color:#000;text-transform:none;text-orientation:mixed;white-space:normal;shape-padding:0;isolation:auto;mix-blend-mode:normal;solid-color:#000;solid-opacity:1" fill="#e4eff8" d="M 0.9276,8.466796 V 8.9960928 H 2.24596 V 8.466796 Z" color="#000" enable-background="accumulate" font-family="sans-serif" font-weight="400" overflow="visible"/><path fill="#c4dcf0" d="M 2.24573,8.9963614 V 8.466666 H 1.79265 C 1.6664,8.607126 1.5875,8.791232 1.5875,8.9960968 Z"/><path fill="#38668c" d="m 2.6457,11.90625 h 11.64167 v 1.058333 H 2.6457 Z"/><path fill="#2c5170" d="m 14.28737,11.90625 h -0.57723 c -0.10889,0.308157 -0.39933,0.529167 -0.74569,0.529167 H 2.6457 v 0.529166 h 11.64167 z"/><path style="line-height:normal;font-variant-ligatures:normal;font-variant-position:normal;font-variant-caps:normal;font-variant-numeric:normal;font-variant-alternates:normal;font-feature-settings:normal;text-indent:0;text-align:start;text-decoration-line:none;text-decoration-style:solid;text-decoration-color:#000;text-transform:none;text-orientation:mixed;white-space:normal;shape-padding:0;isolation:auto;mix-blend-mode:normal;solid-color:#000;solid-opacity:1" fill="#e4eff8" d="M 8.10118,0.584459 C 5.96393,2.477795 4.53034,5.424857 4.23424,8.726081 l 0.5271,0.04703 c 0.28499,-3.177433 1.67,-6.002179 3.69073,-7.792289 z" color="#000" enable-background="accumulate" font-family="sans-serif" font-weight="400" overflow="visible"/><path fill="#38668c" d="m 2.91096,12.700002 h 11.376723 c 0.43974,0 0.79375,0.354011 0.79375,0.793748 v 2.116669 c 0,0.439737 -0.35401,0.793748 -0.79375,0.793748 H 2.91096 c -0.43974,0 -0.79375,-0.354011 -0.79375,-0.793748 V 13.49375 c 0,-0.439737 0.35401,-0.793748 0.79375,-0.793748 z"/><path fill="#c4dcf0" d="m 4.33036,7.937499 c -0.0383,0.260712 -0.0723,0.522918 -0.0961,0.788582 l 0.5271,0.04703 c 0.0253,-0.28183 0.0621,-0.559804 0.10438,-0.835608 z"/><path d="m 7.40887,9.7895809 c -0.3528646,0 -0.3528646,0.5292971 0,0.5292971 h 5.82031 c 0.352865,0 0.352865,-0.5292971 0,-0.5292971 z" style="line-height:normal;font-variant-ligatures:normal;font-variant-position:normal;font-variant-caps:normal;font-variant-numeric:normal;font-variant-alternates:normal;font-feature-settings:normal;text-indent:0;text-align:start;text-decoration-line:none;text-decoration-style:solid;text-decoration-color:#000;text-transform:none;text-orientation:mixed;white-space:normal;shape-padding:0;isolation:auto;mix-blend-mode:normal;solid-color:#000;solid-opacity:1" fill="#e4eff8" color="#000" enable-background="accumulate" font-family="sans-serif" font-weight="400" overflow="visible"/><path fill="#2c5170" d="m 14.515383,12.736689 c 0.0217,0.0726 0.0367,0.148029 0.0367,0.227893 v 2.116667 c 0,0.439736 -0.35402,0.79375 -0.79375,0.79375 H 2.38178 c -0.0799,0 -0.15529,-0.01494 -0.22789,-0.03669 0.098,0.327146 0.39719,0.565857 0.75706,0.565857 h 11.376533 c 0.43974,0 0.79375,-0.354014 0.79375,-0.79375 v -2.116667 c 0,-0.359967 -0.23857,-0.659148 -0.56585,-0.75706 z"/><path fill="#e4eff8" d="M 6.0854165,16.404167 H 2.6458233 c -0.43973,0 -0.79374,-0.354012 -0.79374,-0.793749 v -2.116669 c 0,-0.439736 0.35401,-0.793748 0.79374,-0.793748 h 3.4395932 z"/><path d="m 7.40887,14.551953 c -0.3530814,-2.17e-4 -0.3530814,0.52908 0,0.529297 h 5.82031 c 0.353081,2.17e-4 0.353081,-0.52908 0,-0.529297 z" style="line-height:normal;font-variant-ligatures:normal;font-variant-position:normal;font-variant-caps:normal;font-variant-numeric:normal;font-variant-alternates:normal;font-feature-settings:normal;text-indent:0;text-align:start;text-decoration-line:none;text-decoration-style:solid;text-decoration-color:#000;text-transform:none;text-orientation:mixed;white-space:normal;shape-padding:0;isolation:auto;mix-blend-mode:normal;solid-color:#000;solid-opacity:1" fill="#2c5170" color="#000" enable-background="accumulate" font-family="sans-serif" font-weight="400" overflow="visible"/><path style="line-height:normal;font-variant-ligatures:normal;font-variant-position:normal;font-variant-caps:normal;font-variant-numeric:normal;font-variant-alternates:normal;font-feature-settings:normal;text-indent:0;text-align:start;text-decoration-line:none;text-decoration-style:solid;text-decoration-color:#000;text-transform:none;text-orientation:mixed;white-space:normal;shape-padding:0;isolation:auto;mix-blend-mode:normal;solid-color:#000;solid-opacity:1" fill="#e4eff8" d="m 7.40887,14.287499 c -0.3528646,0 -0.3528646,0.529297 0,0.529297 h 5.82031 c 0.352865,0 0.352865,-0.529297 0,-0.529297 z" color="#000" enable-background="accumulate" font-family="sans-serif" font-weight="400" overflow="visible"/><path fill="#38668c" d="m 4.4977846,14.55208 c 3e-7,0.29225 -0.2369155,0.529166 -0.529166,0.529166 -0.2922505,0 -0.5291663,-0.236916 -0.529166,-0.529166 0,-0.29225 0.2369157,-0.529165 0.529166,-0.529165 0.2922503,0 0.529166,0.236915 0.529166,0.529165 z"/><path fill="#2c5170" d="m 3.83529,14.039973 c 0.2339582,0.0599 0.3976752,0.270609 0.39791,0.512114 8.6e-6,0.240908 -0.1627039,0.451415 -0.39584,0.512113 0.042867,0.01116 0.086965,0.01689 0.13126,0.01705 0.2922482,-3e-6 0.5291603,-0.236918 0.52916,-0.529166 9e-7,-0.292248 -0.2369114,-0.529164 -0.52916,-0.529165 -0.044987,-5e-6 -0.089792,0.0057 -0.13333,0.01705 z"/><path fill="#c4dcf0" d="M1.8520833 15.08125v.529167c0 .439737.35402.79375.79375.79375H6.0854165V15.875H2.6458333c-.43973 0-.79375-.354013-.79375-.79375zM8.2020836 7.9375H8.7312502V8.4666666H8.2020836z"/><path fill="#38668c" d="m 2.91096,8.2020864 h 11.376723 c 0.43974,0 0.79375,0.354011 0.79375,0.793748 v 2.1166686 c 0,0.439737 -0.35401,0.793748 -0.79375,0.793748 H 2.91096 c -0.43974,0 -0.79375,-0.354011 -0.79375,-0.793748 V 8.9958344 c 0,-0.439737 0.35401,-0.793748 0.79375,-0.793748 z"/><path fill="#2c5170" d="m 14.515383,8.2387734 c 0.0217,0.0726 0.0367,0.148029 0.0367,0.227893 v 2.1166666 c 0,0.439736 -0.35402,0.79375 -0.79375,0.79375 H 2.38178 c -0.0799,0 -0.15529,-0.01494 -0.22789,-0.03669 0.098,0.327146 0.39719,0.565857 0.75706,0.565857 h 11.376533 c 0.43974,0 0.79375,-0.354014 0.79375,-0.79375 V 8.9958334 c 0,-0.359967 -0.23857,-0.659148 -0.56585,-0.75706 z"/><path fill="#e4eff8" d="M 6.0854165,11.906251 H 2.6458233 c -0.43973,0 -0.79374,-0.354012 -0.79374,-0.793749 V 8.9958334 c 0,-0.439736 0.35401,-0.793748 0.79374,-0.793748 h 3.4395932 z"/><path style="line-height:normal;font-variant-ligatures:normal;font-variant-position:normal;font-variant-caps:normal;font-variant-numeric:normal;font-variant-alternates:normal;font-feature-settings:normal;text-indent:0;text-align:start;text-decoration-line:none;text-decoration-style:solid;text-decoration-color:#000;text-transform:none;text-orientation:mixed;white-space:normal;shape-padding:0;isolation:auto;mix-blend-mode:normal;solid-color:#000;solid-opacity:1" fill="#2c5170" d="m 7.40887,10.054037 c -0.3530814,-2.17e-4 -0.3530814,0.52908 0,0.529297 h 5.82031 c 0.353081,2.17e-4 0.353081,-0.52908 0,-0.529297 z" color="#000" enable-background="accumulate" font-family="sans-serif" font-weight="400" overflow="visible"/><path d="m 7.40887,9.7895831 c -0.3528646,0 -0.3528646,0.5292969 0,0.5292969 h 5.82031 c 0.352865,0 0.352865,-0.5292969 0,-0.5292969 z" style="line-height:normal;font-variant-ligatures:normal;font-variant-position:normal;font-variant-caps:normal;font-variant-numeric:normal;font-variant-alternates:normal;font-feature-settings:normal;text-indent:0;text-align:start;text-decoration-line:none;text-decoration-style:solid;text-decoration-color:#000;text-transform:none;text-orientation:mixed;white-space:normal;shape-padding:0;isolation:auto;mix-blend-mode:normal;solid-color:#000;solid-opacity:1" fill="#e4eff8" color="#000" enable-background="accumulate" font-family="sans-serif" font-weight="400" overflow="visible"/><path fill="#38668c" d="m 4.4977846,10.054164 c 3e-7,0.29225 -0.2369155,0.529166 -0.529166,0.529166 -0.2922505,0 -0.5291663,-0.236916 -0.529166,-0.529166 0,-0.2922499 0.2369157,-0.5291646 0.529166,-0.5291646 0.2922503,0 0.529166,0.2369147 0.529166,0.5291646 z"/><path fill="#2c5170" d="m 3.83529,9.5420574 c 0.2339582,0.0599 0.3976752,0.2706087 0.39791,0.5121136 8.6e-6,0.240908 -0.1627039,0.451415 -0.39584,0.512113 0.042867,0.01116 0.086965,0.01689 0.13126,0.01705 0.2922482,-3e-6 0.5291603,-0.236918 0.52916,-0.529166 9e-7,-0.2922479 -0.2369114,-0.5291636 -0.52916,-0.5291646 -0.044987,-5e-6 -0.089792,0.0057 -0.13333,0.01705 z"/><path fill="#c4dcf0" d="m 1.8520833,10.583334 v 0.529167 c 0,0.439737 0.35402,0.79375 0.79375,0.79375 H 6.0854165 V 11.377084 H 2.6458333 c -0.43973,0 -0.79375,-0.354013 -0.79375,-0.79375 z"/></svg>