<svg xmlns="http://www.w3.org/2000/svg" xmlns:xlink="http://www.w3.org/1999/xlink" width="338" height="337" viewBox="0 0 338 337">
  <defs>
    <clipPath id="clip-path">
      <rect id="Rectangle_17936" data-name="Rectangle 17936" width="338" height="337" transform="translate(0 0.155)" fill="none"/>
    </clipPath>
    <clipPath id="clip-path-3">
      <rect id="Rectangle_17932" data-name="Rectangle 17932" width="30.189" height="51.384" fill="none"/>
    </clipPath>
    <clipPath id="clip-path-4">
      <rect id="Rectangle_17933" data-name="Rectangle 17933" width="47.122" height="47.122" fill="none"/>
    </clipPath>
    <clipPath id="clip-path-5">
      <rect id="Rectangle_17934" data-name="Rectangle 17934" width="17.747" height="29.786" fill="none"/>
    </clipPath>
  </defs>
  <g id="Group_8401" data-name="Group 8401" transform="translate(0 -0.155)">
    <g id="Group_8400" data-name="Group 8400" clip-path="url(#clip-path)">
      <rect id="Rectangle_17929" data-name="Rectangle 17929" width="338" height="2" transform="translate(0 325.155)" fill="#0e1738"/>
      <path id="Path_8878" data-name="Path 8878" d="M172.006,116.226v65.455h-61.75V101.406h46.93Z" transform="translate(-17.09 -15.718)" fill="#ede6ff"/>
      <g id="Group_8399" data-name="Group 8399">
        <g id="Group_8398" data-name="Group 8398" clip-path="url(#clip-path)">
          <path id="Path_8879" data-name="Path 8879" d="M180.615,116.226H169.5a3.7,3.7,0,0,1-3.7-3.705V101.406Z" transform="translate(-25.698 -15.718)" fill="#dcd3f3"/>
          <path id="Path_8880" data-name="Path 8880" d="M144.9,153.485a1.539,1.539,0,0,1-1.486-1.592l.265-7.577a1.538,1.538,0,0,1,1.591-1.485,4.388,4.388,0,1,0-4.232-4.538,1.54,1.54,0,0,1-3.077-.107,7.467,7.467,0,1,1,8.747,7.617l-.217,6.2a1.538,1.538,0,0,1-1.591,1.485" transform="translate(-21.384 -20.302)" fill="#dcd3f3"/>
          <path id="Path_8881" data-name="Path 8881" d="M148.234,163.548A2.463,2.463,0,1,1,145.857,161a2.463,2.463,0,0,1,2.376,2.548" transform="translate(-22.213 -24.955)" fill="#dcd3f3"/>
          <path id="Path_8882" data-name="Path 8882" d="M62.721,73.662l25.048,60.472L30.72,157.765,0,83.6l43.358-17.96Z" transform="translate(0 -10.174)" fill="#ede6ff"/>
          <path id="Path_8883" data-name="Path 8883" d="M70.674,73.663,60.4,77.916a3.7,3.7,0,0,1-4.84-2.005L51.311,65.642Z" transform="translate(-7.953 -10.175)" fill="#dcd3f3"/>
          <rect id="Rectangle_17930" data-name="Rectangle 17930" width="30.875" height="9.262" transform="matrix(0.383, -0.924, 0.924, 0.383, 33.698, 111.183)" fill="#dcd3f3"/>
          <rect id="Rectangle_17931" data-name="Rectangle 17931" width="9.263" height="30.875" transform="translate(27.85 97.064) rotate(-67.499)" fill="#dcd3f3"/>
          <path id="Path_8884" data-name="Path 8884" d="M122.415,21.08a1.5,1.5,0,0,1-1.9-.927l-2.4-6.965a1.5,1.5,0,0,1,.927-1.9,4.263,4.263,0,1,0-5.419-2.643,1.5,1.5,0,0,1-2.828.974,7.255,7.255,0,1,1,10.585,3.864l1.961,5.7a1.5,1.5,0,0,1-.927,1.9" transform="translate(-17.112 0)" fill="#ede6ff"/>
          <path id="Path_8885" data-name="Path 8885" d="M128.686,29.426a2.393,2.393,0,1,1-3.043-1.484,2.395,2.395,0,0,1,3.043,1.484" transform="translate(-19.224 -4.311)" fill="#ede6ff"/>
          <path id="Path_8886" data-name="Path 8886" d="M198.258,38.4a1.782,1.782,0,0,1-1.1-2.265l2.856-8.3a1.782,1.782,0,0,1,2.265-1.1,5.077,5.077,0,1,0-3.148-6.453,1.782,1.782,0,0,1-3.369-1.16,8.641,8.641,0,1,1,7.1,11.388L200.523,37.3a1.782,1.782,0,0,1-2.265,1.1" transform="translate(-30.327 -2.061)" fill="#ede6ff"/>
          <path id="Path_8887" data-name="Path 8887" d="M198.835,50.4a2.85,2.85,0,1,1-1.767-3.623,2.85,2.85,0,0,1,1.767,3.623" transform="translate(-29.96 -7.226)" fill="#ede6ff"/>
          <path id="Path_8888" data-name="Path 8888" d="M358.438,129a11.662,11.662,0,1,1,16.493,0,11.662,11.662,0,0,1-16.493,0m1.5-1.5a9.542,9.542,0,1,0,0-13.494,9.552,9.552,0,0,0,0,13.494" transform="translate(-55.028 -16.909)" fill="#e8e9fd"/>
          <path id="Path_8889" data-name="Path 8889" d="M342.1,145.17l14.243-14.244,1.5,1.5L343.6,146.669a1.06,1.06,0,0,1-1.5-1.5" transform="translate(-52.977 -20.294)" fill="#ede6ff"/>
          <path id="Path_8890" data-name="Path 8890" d="M332.532,300.514c7.061,1.588,20.207-5.251,22.173-14.885,1.832-8.982.213-18.908,8.393-25.63s19.1-30.2,16.57-34.1c-3.65-5.645-21.531.375-28.7,8.825s-4.538,14.078-9.586,20.449-12.091,13.791-15.121,23.583,6.267,21.756,6.267,21.756" transform="translate(-50.477 -34.673)" fill="#5fd284"/>
          <path id="Path_8891" data-name="Path 8891" d="M334.8,310.567c1.11-3.423,2.85-6.723,5.359-8.774a26.115,26.115,0,0,1,6.222-3.6c3.486-1.582,6.5-2.947,9.6-8.706a15.771,15.771,0,0,1,1.182-1.85c-.271,2.646-.513,5.312-1.041,7.9-1.889,9.26-14.106,15.934-21.323,15.027" transform="translate(-51.894 -44.584)" fill="#38c092"/>
          <path id="Path_8892" data-name="Path 8892" d="M315.584,357.373l.031.007a.7.7,0,0,0,.826-.548c.1-.51,10.613-51.541,37.287-101.81a.7.7,0,1,0-1.24-.657c-26.773,50.457-37.319,101.678-37.423,102.19a.7.7,0,0,0,.517.819" transform="translate(-48.833 -39.369)" fill="#38c092"/>
          <path id="Path_8893" data-name="Path 8893" d="M338.615,326.65c-4.658-5.3-1.9-20.212,3.542-24.666s11.141-3.17,16.516-13.142c4.946-9.177,23.965-15.218,25.5-13.761,2.953,2.8-.672,19.1-8.5,24.807-12.731,9.277-11.025,18.96-17.643,24.632-8.654,7.417-19.421,2.131-19.421,2.131" transform="translate(-52.118 -42.604)" fill="#5fd284"/>
          <path id="Path_8894" data-name="Path 8894" d="M320.415,366.089a.7.7,0,0,0,.85-.51c7.536-30.226,35.014-60.446,35.291-60.748a.7.7,0,1,0-1.033-.947c-.28.3-28,30.781-35.618,61.355a.7.7,0,0,0,.51.85" transform="translate(-49.582 -47.067)" fill="#38c092"/>
          <path id="Path_8895" data-name="Path 8895" d="M271.221,99.928a6.439,6.439,0,1,1,0-9.106,6.438,6.438,0,0,1,0,9.106" transform="translate(-40.336 -13.785)" fill="#0e1738"/>
          <path id="Path_8896" data-name="Path 8896" d="M263.612,100.693a6.659,6.659,0,0,1-.149-9.254,6.653,6.653,0,1,1,9.4,9.4,6.66,6.66,0,0,1-9.255-.15m0,0a6.222,6.222,0,0,0,8.955-.15,6.231,6.231,0,0,0-8.807-8.807,6.224,6.224,0,0,0-.149,8.957" transform="translate(-40.558 -13.847)" fill="#0e1738"/>
          <path id="Path_8897" data-name="Path 8897" d="M266.2,95.049a6.589,6.589,0,1,1-9.636-.341,6.827,6.827,0,0,1,9.636.341" transform="translate(-39.484 -14.396)" fill="#5022c3"/>
          <path id="Path_8898" data-name="Path 8898" d="M265.959,108.98c0,9.194-6.763,16.647-15.1,16.647s-15.1-13.3-15.1-19c0-9.194,8.086-14.3,16.428-14.3s13.781,7.453,13.781,16.646" transform="translate(-36.541 -14.312)" fill="#0e1738"/>
          <path id="Path_8899" data-name="Path 8899" d="M240.783,140.2c-7.6,2.647-14.383,11.24-27.658,30.253,0,0,3.958.787,13.406,3.11l17.622-18.868Z" transform="translate(-33.034 -21.731)" fill="#ffc3bd"/>
          <path id="Path_8900" data-name="Path 8900" d="M243.4,140.2h16.121l11.528,2.79c3.566,6.753-3.039,33.782,2.8,58.138,0,0-28.818,4.861-43.812,0,0,0,6.751-10.668,3.469-26.076-2.865-13.454-4.182-20.118.783-29.011Z" transform="translate(-35.656 -21.731)" fill="#5022c3"/>
          <path id="Path_8901" data-name="Path 8901" d="M264.154,113.054a2.686,2.686,0,0,0-3.335-.009V109.4a8.861,8.861,0,0,0-8.86-8.861,13.318,13.318,0,0,0-13.318,13.318V118.9a11.079,11.079,0,0,0,6.057,9.873V136.1l16.161-2.047-.04-13.826c2.98.742,5.4-5.427,3.335-7.171" transform="translate(-36.989 -15.583)" fill="#ffc3bd"/>
          <path id="Path_8902" data-name="Path 8902" d="M245.809,133.1v2.309c10.93,2.385,14.048-6.991,14.048-6.991-5.589,6.378-11.817,5.525-14.048,4.681" transform="translate(-38.1 -19.904)" fill="#ff847f"/>
          <path id="Path_8903" data-name="Path 8903" d="M277.89,143.5c-3.176,1.162-5.274,13.837-2.35,18.667l10.1,20.273-1.085,16.129c7.553,3.464,7,.978,7,.978s3.838-9.714,3.838-19.29c0-6.54-10.7-34.021-17.5-36.758" transform="translate(-42.492 -22.243)" fill="#ffc3bd"/>
          <path id="Path_8904" data-name="Path 8904" d="M251.733,116.528a.845.845,0,1,0,.845-.845.845.845,0,0,0-.845.845" transform="translate(-39.019 -17.931)" fill="#0e1738"/>
          <path id="Path_8905" data-name="Path 8905" d="M242.511,116.528a.845.845,0,1,0,.845-.845.845.845,0,0,0-.845.845" transform="translate(-37.589 -17.931)" fill="#0e1738"/>
          <path id="Path_8906" data-name="Path 8906" d="M246.516,117.042c-.345,1.049-.808,2.019-1.185,3a6.24,6.24,0,0,0-.241.722c-.059.236-.1.472-.023.551a8.712,8.712,0,0,0,1.124,1.078,3.271,3.271,0,0,1-1.529-.755.726.726,0,0,1-.161-.264,1.089,1.089,0,0,1-.044-.273,2.027,2.027,0,0,1,.038-.467,5.008,5.008,0,0,1,.249-.82,9,9,0,0,1,1.771-2.768" transform="translate(-37.891 -18.142)" fill="#ff847f"/>
          <path id="Path_8907" data-name="Path 8907" d="M254.894,114.675a11.732,11.732,0,0,0-2.407-1.263,5.919,5.919,0,0,0-2.643-.13,2.68,2.68,0,0,1,1.324-.739,2.956,2.956,0,0,1,1.578.065,3.482,3.482,0,0,1,2.148,2.067" transform="translate(-38.726 -17.432)" fill="#0e1738"/>
          <path id="Path_8908" data-name="Path 8908" d="M239.735,114.675a3.482,3.482,0,0,1,2.148-2.067,2.956,2.956,0,0,1,1.578-.065,2.68,2.68,0,0,1,1.324.739,5.919,5.919,0,0,0-2.643.13,11.732,11.732,0,0,0-2.407,1.263" transform="translate(-37.159 -17.432)" fill="#0e1738"/>
          <path id="Path_8909" data-name="Path 8909" d="M264.962,120.627c.466-.468.99-1.161.55-1.493-.041-.035-.108-.1-.19-.183a1.373,1.373,0,0,1-.178-.257,1.917,1.917,0,0,1-.2-.564,2.48,2.48,0,0,1,.057-1.165,1.2,1.2,0,0,1,.37-.584,1.46,1.46,0,0,1,.6-.235,1.924,1.924,0,0,1,1.169.128,1.328,1.328,0,0,1,.734.9,2.489,2.489,0,0,1-.027,1.071c-.08-.682-.335-1.382-.895-1.518a1.586,1.586,0,0,0-.857,0,1.091,1.091,0,0,0-.347.135.7.7,0,0,0-.148.289,1.993,1.993,0,0,0-.07.873,1.366,1.366,0,0,0,.107.412,1.069,1.069,0,0,0,.1.176c.031.046.079.108.155.2a.917.917,0,0,1,.2.633,1.029,1.029,0,0,1-.256.558,2.833,2.833,0,0,1-.871.619" transform="translate(-41.059 -17.997)" fill="#ff847f"/>
          <g id="Group_8391" data-name="Group 8391" transform="translate(208.006 129.075)" opacity="0.15">
            <g id="Group_8390" data-name="Group 8390">
              <g id="Group_8389" data-name="Group 8389" clip-path="url(#clip-path-3)">
                <path id="Path_8910" data-name="Path 8910" d="M274.672,153.483l-4.56-.733c-.045,7.464-5.457,21.414-18.313,20,0,0,19.186,6.831,18.008,12.746s-18.912,11.408-22.389,11.83-.093,2.4,14.573,2.4c4.45,0,6.19,1.845,6.468,4.408,4.744-.534,7.892-1.064,7.892-1.064-4.373-18.245-1.764-37.99-1.678-49.588" transform="translate(-246.161 -152.751)" fill="#0e1738"/>
              </g>
            </g>
          </g>
          <path id="Path_8911" data-name="Path 8911" d="M283.756,211.84l-6.016-.7a1.4,1.4,0,0,1,.162-2.8h5.853Z" transform="translate(-42.857 -32.293)" fill="#ffc3bd"/>
          <path id="Path_8912" data-name="Path 8912" d="M261.782,140.2h-16.13s-2.361,3.739,0,5.445a5.5,5.5,0,0,0,2.6.824l.777,9.478,3.71-9.718c4.422-.794,9.042-3.071,9.042-6.028" transform="translate(-37.913 -21.731)" fill="#ffc3bd"/>
          <path id="Path_8913" data-name="Path 8913" d="M251.041,126.061a1.114,1.114,0,1,1-1.083-1.373,1.255,1.255,0,0,1,1.083,1.373" transform="translate(-38.575 -19.327)" fill="#ff847f"/>
          <path id="Path_8914" data-name="Path 8914" d="M234.17,141.677l5.543,3.935-12.736,27.346a7.3,7.3,0,1,1-12.241-7.722Z" transform="translate(-33.026 -21.96)" fill="#ffc3bd"/>
          <path id="Path_8915" data-name="Path 8915" d="M237.875,139.164l-.884-4.386a.925.925,0,0,1,0-.37l1.121-5.694a.951.951,0,0,1,.243-.47l1.265-1.329a.948.948,0,0,1,1.354-.019l.33.329a.946.946,0,0,1,.114,1.208l-.782,1.14a.947.947,0,0,0,1.52,1.128l3.911-4.88a.948.948,0,0,1,1.236-.215l4.613,2.842a.948.948,0,0,1,.367,1.195l-3.861,8.594a.937.937,0,0,1-.21.3l-4.794,4.564Z" transform="translate(-36.731 -19.447)" fill="#ffc3bd"/>
          <path id="Path_8916" data-name="Path 8916" d="M240.106,126.862a.976.976,0,0,1,1.125-.239,1.86,1.86,0,0,1,.482.379,1.254,1.254,0,0,1,.382.5,1.037,1.037,0,0,1,.03.646,2.092,2.092,0,0,1-.3.554c-.209.33-.451.686-.632,1a.8.8,0,0,0,.168.908.766.766,0,0,0,.891.109,4.4,4.4,0,0,0,.726-.844l.733-.95,1.477-1.892.744-.94.373-.47a1.239,1.239,0,0,1,1.388-.429,3.587,3.587,0,0,1,.581.319l1.025.623,2.051,1.246,1.018.635a1.659,1.659,0,0,1,.55.457,1.242,1.242,0,0,1,.232.744,1.582,1.582,0,0,1-.2.69l-.249.546-.5,1.092c-.669,1.453-1.316,2.916-2.008,4.359l-1.022,2.172a1.535,1.535,0,0,1-.364.561l-.443.406-.885.81c-1.195,1.066-2.374,2.146-3.583,3.2,1.109-1.156,2.246-2.281,3.369-3.422l.853-.844.428-.422a1.152,1.152,0,0,0,.26-.45l.943-2.207c.621-1.475,1.284-2.93,1.926-4.4l.486-1.1a4.076,4.076,0,0,0,.38-1,.634.634,0,0,0-.124-.38,1.1,1.1,0,0,0-.378-.286l-1.025-.624-2.036-1.271-1.017-.635c-.373-.247-.576-.372-.871-.28a.666.666,0,0,0-.346.243l-.378.466-.756.931-1.525,1.853-.767.923-.384.461a1.626,1.626,0,0,1-.5.457,1.144,1.144,0,0,1-1.329-.2,1.118,1.118,0,0,1-.2-1.3c.243-.368.474-.658.711-.991a1.95,1.95,0,0,0,.3-.478.852.852,0,0,0,.005-.533,1.1,1.1,0,0,0-.316-.461,1.849,1.849,0,0,0-.432-.387.928.928,0,0,0-1.083.154" transform="translate(-37.216 -19.394)" fill="#ff847f"/>
          <path id="Path_8917" data-name="Path 8917" d="M249.421,126.131A10.034,10.034,0,0,1,248.4,129.3a8.561,8.561,0,0,1-.9,1.423,3.752,3.752,0,0,1-1.276,1.11,9.732,9.732,0,0,0,.864-1.384c.253-.475.507-.95.746-1.436.5-.962.977-1.939,1.588-2.885" transform="translate(-38.165 -19.55)" fill="#ff847f"/>
          <path id="Path_8918" data-name="Path 8918" d="M251.479,127.332a8.447,8.447,0,0,1-.766,2.983,6.223,6.223,0,0,1-1.848,2.472c.455-.935.861-1.818,1.271-2.733s.817-1.822,1.343-2.723" transform="translate(-38.574 -19.736)" fill="#ff847f"/>
          <path id="Path_8919" data-name="Path 8919" d="M253.2,128.364a9.82,9.82,0,0,1-.7,3.048,7.017,7.017,0,0,1-1.678,2.647l1.089-2.879a22.445,22.445,0,0,1,1.289-2.816" transform="translate(-38.877 -19.896)" fill="#ff847f"/>
          <path id="Path_8920" data-name="Path 8920" d="M277.89,143.5c-3.176,1.162-5.274,13.837-2.35,18.667l4.767,11.086,11.757-9.358c-4.584-9.4-10.464-18.9-14.174-20.4" transform="translate(-42.492 -22.243)" fill="#5022c3"/>
          <path id="Path_8921" data-name="Path 8921" d="M256.942,97.869c-4.418-1.819-17.528-1.011-19.275,4.553v6.76s1.6.1,3.814.164l1.124-5.269.63,5.31a68.38,68.38,0,0,0,7.277-.2l.641-3.8.819,4.021,3.674.691s3.548,5.1,3.334,17.684l1.725-15.311s.654-12.776-3.764-14.6" transform="translate(-36.838 -15.035)" fill="#0e1738"/>
          <path id="Path_8922" data-name="Path 8922" d="M279.607,172.629a59.038,59.038,0,0,1,5.307-5.29,58.382,58.382,0,0,1,5.869-4.658,58.157,58.157,0,0,1-5.307,5.29,58.814,58.814,0,0,1-5.869,4.658" transform="translate(-43.339 -25.216)" fill="#fff"/>
          <path id="Path_8923" data-name="Path 8923" d="M157.605,193.454l-2.181-6.179A16.9,16.9,0,0,0,139.487,176H66.945a16.9,16.9,0,0,0-16.9,16.9V335.705a16.9,16.9,0,0,0,16.9,16.9H268.056a16.9,16.9,0,0,0,16.9-16.9V221.63a16.9,16.9,0,0,0-16.9-16.9H173.542a16.9,16.9,0,0,1-15.937-11.276" transform="translate(-7.757 -27.28)" fill="#ff8a72"/>
          <path id="Path_8924" data-name="Path 8924" d="M13.355,273.614a.846.846,0,0,1-.822-.653L2.913,231.65a.845.845,0,0,1,1.646-.383l9.619,41.31a.845.845,0,0,1-.824,1.037" transform="translate(-0.448 -35.745)" fill="#ffc592"/>
          <path id="Path_8925" data-name="Path 8925" d="M23.123,315.56a.845.845,0,0,1-.822-.653L17.125,292.68a.845.845,0,1,1,1.646-.383l5.176,22.226a.845.845,0,0,1-.824,1.037" transform="translate(-2.651 -45.205)" fill="#ffc592"/>
          <path id="Path_8926" data-name="Path 8926" d="M278.252,336.2v2.763a16.9,16.9,0,0,1-16.9,16.9H57.5c-9.337,0-18.489-6.8-20.441-15.2L7.142,212.2C5.181,203.8,11.164,197,20.5,197H93.044a22.291,22.291,0,0,1,18.294,10.14l3.481,5.56a22.291,22.291,0,0,0,18.294,10.14h94.513c9.337,0,18.489,6.811,20.441,15.2l23.077,99.093a3.617,3.617,0,0,0,7.106-.938" transform="translate(-1.049 -30.535)" fill="#ffc592"/>
          <path id="Path_8927" data-name="Path 8927" d="M150.564,321.612l-12.063-9.56,30.875-41.825,12.063,9.56Z" transform="translate(-21.468 -41.885)" fill="#ff8a72"/>
          <path id="Path_8928" data-name="Path 8928" d="M128.5,279.786l7.057-9.56,52.776,41.826-7.057,9.559Z" transform="translate(-19.918 -41.885)" fill="#ff8a72"/>
          <path id="Path_8929" data-name="Path 8929" d="M199.642,316.657l-11.078,15-12.869-10.2-4.335-3.439a28.943,28.943,0,0,1,12.227-14.078l4.5,3.557Z" transform="translate(-26.561 -47.111)" fill="#ff8a72"/>
          <path id="Path_8930" data-name="Path 8930" d="M218.044,347.3a28.81,28.81,0,1,1,0-40.743,28.81,28.81,0,0,1,0,40.743m-3.7-3.7a23.572,23.572,0,1,0-33.336,0,23.6,23.6,0,0,0,33.336,0" transform="translate(-26.174 -46.208)" fill="#0e1738"/>
          <path id="Path_8931" data-name="Path 8931" d="M258,390.958,222.812,355.77l3.7-3.7L261.7,387.254a2.619,2.619,0,0,1-3.7,3.7" transform="translate(-34.536 -54.57)" fill="#0e1738"/>
          <g id="Group_8394" data-name="Group 8394" transform="translate(147.938 257.157)" opacity="0.15">
            <g id="Group_8393" data-name="Group 8393">
              <g id="Group_8392" data-name="Group 8392" clip-path="url(#clip-path-4)">
                <path id="Path_8932" data-name="Path 8932" d="M215.3,344.557a23.572,23.572,0,1,0-33.336,0,23.6,23.6,0,0,0,33.336,0" transform="translate(-175.074 -304.328)" fill="#fff"/>
              </g>
            </g>
          </g>
          <g id="Group_8397" data-name="Group 8397" transform="translate(173.081 261.486)" opacity="0.5">
            <g id="Group_8396" data-name="Group 8396">
              <g id="Group_8395" data-name="Group 8395" clip-path="url(#clip-path-5)">
                <path id="Path_8933" data-name="Path 8933" d="M204.83,309.451c14.207,0,22.325,20.914,15,29.786a33.75,33.75,0,0,0-3.873-17.111,37.071,37.071,0,0,0-11.129-12.675" transform="translate(-204.83 -309.451)" fill="#fff"/>
              </g>
            </g>
          </g>
          <path id="Path_8934" data-name="Path 8934" d="M293,207.061h-7.79a1.343,1.343,0,0,0-1.358,1.329v4.31a1.134,1.134,0,0,0,1.227,1.12h.172a1.213,1.213,0,0,0,1.219-1.12h.017a1.213,1.213,0,0,0,1.218,1.12h.172a1.214,1.214,0,0,0,1.219-1.12h.016a1.213,1.213,0,0,0,1.219,1.12h.172c1.235,0,1.176-.979,1.219-1.6h.017a1.213,1.213,0,0,0,1.218,1.12h.172a1.213,1.213,0,0,0,1.218-1.12h.008V208.39A1.344,1.344,0,0,0,293,207.061" transform="translate(-43.996 -32.094)" fill="#ffc3bd"/>
          <path id="Path_8935" data-name="Path 8935" d="M286.9,207.061a11.337,11.337,0,0,1,.321,2.819,11.21,11.21,0,0,1-.313,2.82,11.249,11.249,0,0,1-.321-2.819,11.375,11.375,0,0,1,.313-2.82" transform="translate(-44.421 -32.094)" fill="#ff847f"/>
          <path id="Path_8936" data-name="Path 8936" d="M290.007,207.061a11.338,11.338,0,0,1,.317,2.82,11.215,11.215,0,0,1-.317,2.819,11.213,11.213,0,0,1-.317-2.819,11.336,11.336,0,0,1,.317-2.82" transform="translate(-44.902 -32.094)" fill="#ff847f"/>
          <path id="Path_8937" data-name="Path 8937" d="M293.124,207.061a10.65,10.65,0,0,1,0,5.157,10.649,10.649,0,0,1,0-5.157" transform="translate(-45.385 -32.094)" fill="#ff847f"/>
          <path id="Path_8938" data-name="Path 8938" d="M320.507,65.453a1.159,1.159,0,0,1-1.118-1.2l.2-5.706a1.16,1.16,0,0,1,1.2-1.119,3.3,3.3,0,1,0-3.187-3.417,1.16,1.16,0,0,1-2.318-.081,5.624,5.624,0,1,1,6.587,5.737l-.163,4.668a1.159,1.159,0,0,1-1.2,1.118" transform="translate(-48.869 -7.518)" fill="#dcd3f3"/>
          <path id="Path_8939" data-name="Path 8939" d="M323.019,73.032a1.855,1.855,0,1,1-1.789-1.919,1.854,1.854,0,0,1,1.789,1.919" transform="translate(-49.493 -11.022)" fill="#dcd3f3"/>
          <path id="Path_8940" data-name="Path 8940" d="M290.864,87.143l5.58-17.846a23.738,23.738,0,1,1,8.806,8.9Zm26.255-50.688a21.2,21.2,0,0,0-18.211,32.04l.29.486L295.32,81.387l9.92-6.169.67.419a21.194,21.194,0,1,0,11.209-39.182" transform="translate(-45.084 -5.258)" fill="#ede6ff"/>
        </g>
      </g>
    </g>
  </g>
</svg>
